<mxfile host="Electron" modified="2023-06-22T07:44:02.522Z" agent="5.0 (Windows NT 10.0; Win64; x64) AppleWebKit/537.36 (KHTML, like Gecko) draw.io/19.0.2 Chrome/102.0.5005.63 Electron/19.0.3 Safari/537.36" etag="ZxAnGi-0OFIWXrZnc-VR" compressed="false" version="19.0.2" type="device">
  <diagram name="Zeichenblatt-1" id="Zeichenblatt-1">
    <mxGraphModel dx="1094" dy="659" grid="1" gridSize="10" guides="1" tooltips="1" connect="1" arrows="1" fold="1" page="1" pageScale="1" pageWidth="850" pageHeight="1100" math="0" shadow="0">
      <root>
        <object tooltip="" id="0">
          <ag_global_attributes>
            <ag_global_attribute name="Resources" value="" iconName="hammer" min="0" max="5" />
            <ag_global_attribute name="Knowledge" value="" iconName="lightbulb" min="0" max="5" />
            <ag_global_attribute name="Location" value="" iconName="map_pin_ellipse" min="0" max="1" />
            <ag_global_attribute name="Impact" value="" iconName="flame" min="0" max="5" />
          </ag_global_attributes>
          <ag_attributes />
          <ag_computed_attributes />
          <ag_aggregation_functions>
            <ag_aggregation_function name="default" id="6b1d22791hih8" default="activity_w;link" fn="function (collection) { &#10;    var result = null; &#10;    if (collection.childAttributes.length == 1) { &#10;        result = collection.childAttributes[0].attributes;&#10;        result._marking = collection.childAttributes[0].id;&#10;    } else { &#10;        var candidates = []; &#10;        var worstValue = 0; &#10;        collection.childAttributes.forEach(function(child) { &#10;            var value = parseInt(child.computedAttribute); &#10;            if (value &gt; worstValue) { &#10;                worstValue = value; &#10;                candidates = []; &#10;                candidates.push(child); &#10;            } else if (value == worstValue) { &#10;                candidates.push(child); &#10;            } &#10;        }); &#10;        var tiebreaker = function(candidates, name, max) { &#10;            var min_value = max; &#10;            candidates.forEach(function(node) { &#10;                min_value = Math.min(min_value, node.attributes[name]); &#10;            }); &#10;            result = []; &#10;            candidates.forEach(function(node) { &#10;                if (node.attributes[name] == min_value) { &#10;                    result.push(node); &#10;                } &#10;            }); &#10;            return result; &#10;        }; &#10;        if (candidates.length &gt; 1) { &#10;            candidates = tiebreaker(candidates, &quot;Resources&quot;, collection.globalAttributes[&quot;Resources&quot;].max); &#10;            if (candidates.length &gt; 1) { &#10;                candidates = tiebreaker(candidates, &quot;Knowledge&quot;, collection.globalAttributes[&quot;Knowledge&quot;].max); &#10;            } &#10;        } &#10;        result = candidates[0].attributes;&#10;        result._marking = candidates[0].id;&#10;    } &#10;    return result; &#10;}" />
            <ag_aggregation_function name="AND" id="gf0d4f199018" default="and" fn="function (collection) { &#10;    var result = {}; &#10;    var ids = [];&#10;    collection.childAttributes.forEach(function(child) { &#10;    for (var attribute in child.attributes) { &#10;            if (attribute in result) { &#10;                result[attribute] += parseInt(child.attributes[attribute]); &#10;            } else { &#10;                result[attribute] = parseInt(child.attributes[attribute]); &#10;            } &#10;        }&#10;        ids.push(child.id);&#10;    }); &#10;    for (var attribute in result) { &#10;        if (attribute in collection.globalAttributes) { &#10;            result[attribute] = Math.min(collection.globalAttributes[attribute].max, result[attribute]); &#10;        } &#10;    }&#10;    result._marking = ids.join(&quot;;&quot;);&#10;    return result; &#10;}" />
            <ag_aggregation_function name="Security Control" id="73f575i0ghij5" default="activity_g;activity_y" fn="function (collection) { &#10;    var result = {}; &#10;    for (var attribute in collection.localAttributes) { &#10;        result[attribute] = parseInt(collection.localAttributes[attribute]); &#10;    } &#10;    collection.childAttributes.forEach(function(child) { &#10;        for (var attribute in child.attributes) { &#10;            if (attribute in collection.globalAttributes) { &#10;                if (attribute in result) { &#10;                    result[attribute] += parseInt(child.attributes[attribute]); &#10;                } &#10;            } &#10;        } &#10;    }); &#10;    for (var attribute in result) { &#10;        if (attribute in collection.globalAttributes) { &#10;            result[attribute] = Math.min(collection.globalAttributes[attribute].max, result[attribute]); &#10;        } &#10;    } &#10;    return result; &#10;}" />
            <ag_aggregation_function name="Risk" id="egf49jfgj408" default="consequence" fn="function (collection) {  &#10;    var maxRisk = &quot;L&quot;; &#10;    var matrix = [ &#10;        [&quot;L&quot;, &quot;L&quot;, &quot;L&quot;, &quot;L&quot;, &quot;L&quot;], &#10;        [&quot;L&quot;, &quot;L&quot;, &quot;M&quot;, &quot;M&quot;, &quot;M&quot;], &#10;        [&quot;L&quot;, &quot;M&quot;, &quot;M&quot;, &quot;S&quot;, &quot;S&quot;], &#10;        [&quot;L&quot;, &quot;M&quot;, &quot;S&quot;, &quot;V&quot;, &quot;V&quot;], &#10;        [&quot;L&quot;, &quot;M&quot;, &quot;S&quot;, &quot;V&quot;, &quot;V&quot;], &#10;    ];&#10;    var updatedImpacts = [];&#10;    var ids = [];&#10; &#10;    var compareRisk = function(risk1, risk2) { &#10;        /*&#10;        * Returns:&#10;        *  - Null: if one of the parameters is not a character representing a risk&#10;        *  - Negativ integer: if risk1 &lt; risk2&#10;        *  - Zero: if risks are equal&#10;        *  - Positive integer: if risk1 &gt; risk2&#10;        */&#10;        var values = [&quot;L&quot;, &quot;M&quot;, &quot;S&quot;, &quot;V&quot;]; &#10;        var index_risk1 = values.indexOf(risk1); &#10;        var index_risk2 = values.indexOf(risk2); &#10; &#10;        if (index_risk1 == -1 || index_risk2 == -1) { &#10;            return null; &#10;        } &#10;        return index_risk1 - index_risk2; &#10; &#10;    } &#10;     &#10;    collection.childAttributes.forEach(function(child) {  &#10;        var impact = 1;  &#10;        if (child.edgeWeight !== null) {  &#10;            impact = parseInt(child.edgeWeight);  &#10;        }&#10;        var _impact = parseInt(child.attributes._impact) || 0;&#10;        impact = Math.max(impact - _impact, 1);&#10;        updatedImpacts.push(child.id + ':' + impact);&#10;        var af = parseInt(child.computedAttribute) || parseInt(child.attributes._af);&#10;        risk = matrix[af - 1][impact - 1];&#10;        result = compareRisk(risk, maxRisk);&#10;        if (result &gt; 0) { &#10;            maxRisk = risk;&#10;            ids = [child.id];&#10;        } else if (result == 0){&#10;            ids.push(child.id);&#10;        }&#10;    });  &#10;  &#10;    var result = {'_risk': maxRisk, &quot;_marking&quot;: ids.join(&quot;;&quot;)};&#10;    if (updatedImpacts.length &gt; 0) {&#10;        result._weight = updatedImpacts.join(';');&#10;    }&#10;    return result;&#10;}" />
            <ag_aggregation_function name="Impact" id="397423adceb0f" default="" fn="function(collection) {&#10;    var impact = 0;&#10;    var result = {}&#10;    &#10;    collection.childAttributes.forEach(function(child) {&#10;        if (&quot;Impact&quot; in child.attributes) {&#10;            impact += parseInt(child.attributes[&quot;Impact&quot;]);&#10;        } else if (&quot;Resources&quot; in child.attributes &amp;&amp; &quot;Knowledge&quot; in child.attributes &amp;&amp; &quot;Location&quot; in child.attributes) {&#10;            result._af = child.computedAttribute&#10;            result._marking = child.id;&#10;        }&#10;    });&#10;    result._impact = Math.min(impact, collection.globalAttributes[&quot;Impact&quot;].max);&#10;    &#10;    return result;&#10;}" />
          </ag_aggregation_functions>
          <ag_computed_attributes_functions>
            <ag_computed_attributes_function name="default" id="dbg60ff69g9a" default="activity_w;activity_g;activity_y" fn="function (collection) { &#10;    var colorMatrix = {&#10;        5: {&quot;fillColor&quot;: &quot;#cc0000&quot;, &quot;fontColor&quot;: &quot;#ffffff&quot;},&#10;        4: {&quot;fillColor&quot;: &quot;#ff4000&quot;, &quot;fontColor&quot;: &quot;#ffffff&quot;},&#10;        3: {&quot;fillColor&quot;: &quot;#ffdd00&quot;, &quot;fontColor&quot;: &quot;#000000&quot;},&#10;        2: {&quot;fillColor&quot;: &quot;#d4ff00&quot;, &quot;fontColor&quot;: &quot;#000000&quot;},&#10;        1: {&quot;fillColor&quot;: &quot;#40ff00&quot;, &quot;fontColor&quot;: &quot;#000000&quot;}&#10;    }&#10;    var matrix = [ &#10;        [5, 5, 4, 3, 2], &#10;        [5, 4, 4, 3, 2], &#10;        [5, 4, 4, 3, 2], &#10;        [4, 3, 3, 2, 1], &#10;        [3, 2, 2, 1, 1], &#10;    ];&#10;    var result = {};&#10;    &#10;    if (&quot;Knowledge&quot; in collection.cellAttributes &amp;&amp; &quot;Resources&quot; in collection.cellAttributes) {&#10;        var knowledgeIndex = parseInt(collection.cellAttributes[&quot;Knowledge&quot;]) - 1; &#10;        var resourcesIndex = parseInt(collection.cellAttributes[&quot;Resources&quot;]) - 1;&#10;        &#10;        var value = Math.min(5, &#10;            Math.max(collection.globalAttributes[&quot;Location&quot;].max, &#10;                Math.max( matrix[knowledgeIndex][resourcesIndex] - parseInt(collection.cellAttributes[&quot;Location&quot;])) &#10;            ));&#10;        result = colorMatrix[value] || result;&#10;        result[&quot;value&quot;] = value;&#10;    }&#10;    &#10;    return result;&#10;}" />
            <ag_computed_attributes_function name="Risk" id="6c831697g9i0a" default="" fn="function(collection){&#10;    var riskMatrix = {&#10;        &quot;V&quot;: {&quot;fillColor&quot;: &quot;#cc0000&quot;, &quot;fontColor&quot;: &quot;#ffffff&quot;},&#10;        &quot;S&quot;: {&quot;fillColor&quot;: &quot;#ff4000&quot;, &quot;fontColor&quot;: &quot;#ffffff&quot;},&#10;        &quot;M&quot;: {&quot;fillColor&quot;: &quot;#ffdd00&quot;, &quot;fontColor&quot;: &quot;#000000&quot;},&#10;        &quot;L&quot;: {&quot;fillColor&quot;: &quot;#40ff00&quot;, &quot;fontColor&quot;: &quot;#000000&quot;},&#10;    };&#10;    var result = {};&#10;    &#10;    if (&quot;_risk&quot; in collection.cellAttributes) {&#10;        var risk = collection.cellAttributes[&quot;_risk&quot;];&#10;        result = riskMatrix[risk] || result;&#10;        result[&quot;value&quot;] = risk;&#10;    }&#10;    &#10;    return result; &#10;}" />
          </ag_computed_attributes_functions>
          <mxCell />
        </object>
        <object id="1">
          <ag_attributes />
          <ag_computed_attributes />
          <mxCell parent="0" />
        </object>
        <object label="Manipulate Recommendations" Resources="" Knowledge="" Location="" id="4">
          <ag_attributes label="NaN" Resources="4" Knowledge="4" Location="1" _marking="8" />
          <ag_computed_attributes fillColor="#40ff00" fontColor="#000000" value="1" />
          <ag_aggregation_function_reference ag_aggregation_function_reference="6b1d22791hih8" />
          <ag_computed_attributes_function_reference ag_computed_attributes_function_reference="dbg60ff69g9a" />
          <mxCell style="verticalAlign=top;align=center;fillColor=#FFFFFF;gradientColor=none;labelBackgroundColor=none;rounded=0;whiteSpace=wrap;shape=attackgraphs.node;" parent="1" vertex="1">
            <mxGeometry x="1830" y="360" width="224" height="48" as="geometry" />
          </mxCell>
        </object>
        <object label="Disclosure of Private Data&#10;(Preferences, Habits)" Resources="" Knowledge="" Location="" id="5">
          <ag_attributes label="NaN" Resources="4" Knowledge="4" Location="1" _marking="43" />
          <ag_computed_attributes fillColor="#40ff00" fontColor="#000000" value="1" />
          <ag_aggregation_function_reference ag_aggregation_function_reference="6b1d22791hih8" />
          <ag_computed_attributes_function_reference ag_computed_attributes_function_reference="dbg60ff69g9a" />
          <mxCell style="verticalAlign=top;align=center;fillColor=#FFFFFF;gradientColor=none;labelBackgroundColor=none;rounded=0;whiteSpace=wrap;shape=attackgraphs.node;spacingRight=20;" parent="1" vertex="1">
            <mxGeometry x="3540" y="360" width="180" height="60" as="geometry" />
          </mxCell>
        </object>
        <object label="Reputational Damage Individual" id="7">
          <ag_attributes _risk="L" _marking="5;4;gX3LE2zartJ2DNbec-Po-174" _weight="5:2;4:1;gX3LE2zartJ2DNbec-Po-174:1" />
          <ag_computed_attributes fillColor="#40ff00" fontColor="#000000" value="L" />
          <ag_aggregation_function_reference ag_aggregation_function_reference="egf49jfgj408" />
          <ag_computed_attributes_function_reference ag_computed_attributes_function_reference="6c831697g9i0a" />
          <mxCell style="shape=attackgraphs.node;rounded=1" parent="1" vertex="1">
            <mxGeometry x="2860" y="120" width="252" height="48" as="geometry" />
          </mxCell>
        </object>
        <object label="" id="qvmEMtH3Tldis6OgkI8p-155">
          <ag_attributes />
          <ag_computed_attributes />
          <mxCell style="edgeStyle=none;rounded=0;orthogonalLoop=1;jettySize=auto;strokeWidth=2;strokeColor=#000000;" parent="1" source="8" target="12" edge="1">
            <mxGeometry relative="1" as="geometry" />
          </mxCell>
        </object>
        <object label="" id="qvmEMtH3Tldis6OgkI8p-156">
          <ag_attributes />
          <ag_computed_attributes />
          <mxCell style="edgeStyle=none;rounded=0;orthogonalLoop=1;jettySize=auto;strokeWidth=2;strokeColor=#000000;" parent="1" source="8" target="11" edge="1">
            <mxGeometry relative="1" as="geometry" />
          </mxCell>
        </object>
        <object id="qvmEMtH3Tldis6OgkI8p-158">
          <ag_attributes />
          <ag_computed_attributes />
          <mxCell style="edgeStyle=none;rounded=0;orthogonalLoop=1;jettySize=auto;strokeWidth=2;strokeColor=#000000;" parent="1" source="8" target="H8-0O90GaupJun0dLJcG-154" edge="1">
            <mxGeometry relative="1" as="geometry" />
          </mxCell>
        </object>
        <object label="Manipulation of sensors" Resources="" Knowledge="" Location="" id="8">
          <ag_attributes label="NaN" Resources="4" Knowledge="4" Location="1" _marking="9" />
          <ag_computed_attributes fillColor="#40ff00" fontColor="#000000" value="1" />
          <ag_aggregation_function_reference ag_aggregation_function_reference="6b1d22791hih8" />
          <ag_computed_attributes_function_reference ag_computed_attributes_function_reference="dbg60ff69g9a" />
          <mxCell style="verticalAlign=top;align=center;fillColor=#FFFFFF;gradientColor=none;labelBackgroundColor=none;rounded=0;whiteSpace=wrap;shape=attackgraphs.node;" parent="1" vertex="1">
            <mxGeometry x="552" y="481" width="224" height="48" as="geometry" />
          </mxCell>
        </object>
        <object label="Manipulate cameras" Resources="" Knowledge="" Location="" id="9">
          <ag_attributes label="NaN" Resources="4" Knowledge="4" Location="1" _marking="30" />
          <ag_computed_attributes fillColor="#40ff00" fontColor="#000000" value="1" />
          <ag_aggregation_function_reference ag_aggregation_function_reference="6b1d22791hih8" />
          <ag_computed_attributes_function_reference ag_computed_attributes_function_reference="dbg60ff69g9a" />
          <mxCell style="verticalAlign=top;align=center;fillColor=#FFFFFF;gradientColor=none;labelBackgroundColor=none;rounded=0;whiteSpace=wrap;shape=attackgraphs.node;spacingRight=20;" parent="1" vertex="1">
            <mxGeometry x="825.5" y="671" width="150" height="60" as="geometry" />
          </mxCell>
        </object>
        <object id="qvmEMtH3Tldis6OgkI8p-154">
          <ag_attributes />
          <ag_computed_attributes />
          <mxCell style="edgeStyle=none;rounded=0;orthogonalLoop=1;jettySize=auto;strokeWidth=2;strokeColor=#000000;" parent="1" source="10" target="14" edge="1">
            <mxGeometry relative="1" as="geometry" />
          </mxCell>
        </object>
        <object label="Manipulate personal devices" Resources="" Knowledge="" Location="" id="10">
          <ag_attributes label="NaN" Resources="4" Knowledge="5" Location="0" _marking="14" />
          <ag_computed_attributes fillColor="#40ff00" fontColor="#000000" value="1" />
          <ag_aggregation_function_reference ag_aggregation_function_reference="6b1d22791hih8" />
          <ag_computed_attributes_function_reference ag_computed_attributes_function_reference="dbg60ff69g9a" />
          <mxCell style="verticalAlign=top;align=center;fillColor=#FFFFFF;gradientColor=none;labelBackgroundColor=none;rounded=0;whiteSpace=wrap;shape=attackgraphs.node;spacingRight=20;" parent="1" vertex="1">
            <mxGeometry x="12" y="671" width="150" height="60" as="geometry" />
          </mxCell>
        </object>
        <object id="gX3LE2zartJ2DNbec-Po-155">
          <ag_attributes />
          <ag_computed_attributes />
          <mxCell style="edgeStyle=none;rounded=0;orthogonalLoop=1;jettySize=auto;html=1;strokeWidth=2;startArrow=diamondThin;startFill=1;endArrow=none;endFill=0;strokeColor=#000000;" parent="1" source="11" target="gX3LE2zartJ2DNbec-Po-153" edge="1">
            <mxGeometry relative="1" as="geometry" />
          </mxCell>
        </object>
        <object label="GNSS&#10;Jamming" Resources="2" Knowledge="2" Location="1" id="11">
          <ag_attributes label="NaN" Resources="4" Knowledge="5" Location="1" />
          <ag_computed_attributes fillColor="#40ff00" fontColor="#000000" value="1" />
          <ag_computed_attributes_function_reference ag_computed_attributes_function_reference="dbg60ff69g9a" />
          <ag_aggregation_function_reference ag_aggregation_function_reference="73f575i0ghij5" />
          <mxCell style="verticalAlign=top;align=center;fillColor=#fee599;gradientColor=none;labelBackgroundColor=none;rounded=0;whiteSpace=wrap;shape=attackgraphs.node;" parent="1" vertex="1">
            <mxGeometry x="330" y="671" width="150" height="60" as="geometry" />
          </mxCell>
        </object>
        <object id="gX3LE2zartJ2DNbec-Po-158">
          <ag_attributes />
          <ag_computed_attributes />
          <mxCell style="edgeStyle=none;rounded=0;orthogonalLoop=1;jettySize=auto;html=1;strokeWidth=2;startArrow=diamondThin;startFill=1;endArrow=none;endFill=0;strokeColor=#000000;" parent="1" source="12" target="Nkw-83D25Ah4-VtpksPn-157" edge="1">
            <mxGeometry relative="1" as="geometry" />
          </mxCell>
        </object>
        <object id="gX3LE2zartJ2DNbec-Po-161">
          <ag_attributes />
          <ag_computed_attributes />
          <mxCell style="edgeStyle=none;rounded=0;orthogonalLoop=1;jettySize=auto;html=1;strokeWidth=2;startArrow=diamondThin;startFill=1;endArrow=none;endFill=0;strokeColor=#000000;" parent="1" source="12" target="A0BHLIg7a4nKn3OKpdOo-154" edge="1">
            <mxGeometry relative="1" as="geometry" />
          </mxCell>
        </object>
        <object label="Manipulation of load sensors" Resources="2" Knowledge="2" Location="1" id="12">
          <ag_attributes label="NaN" Resources="5" Knowledge="5" Location="1" />
          <ag_computed_attributes fillColor="#40ff00" fontColor="#000000" value="1" />
          <ag_computed_attributes_function_reference ag_computed_attributes_function_reference="dbg60ff69g9a" />
          <ag_aggregation_function_reference ag_aggregation_function_reference="73f575i0ghij5" />
          <mxCell style="verticalAlign=top;align=center;fillColor=#d7e3bf;gradientColor=none;labelBackgroundColor=none;rounded=0;whiteSpace=wrap;shape=attackgraphs.node;spacingRight=20;" parent="1" vertex="1">
            <mxGeometry x="170" y="671" width="150" height="60" as="geometry" />
          </mxCell>
        </object>
        <object id="gX3LE2zartJ2DNbec-Po-157">
          <ag_attributes />
          <ag_computed_attributes />
          <mxCell style="edgeStyle=none;rounded=0;orthogonalLoop=1;jettySize=auto;html=1;strokeWidth=2;startArrow=diamondThin;startFill=1;endArrow=none;endFill=0;strokeColor=#000000;" parent="1" source="13" target="Nkw-83D25Ah4-VtpksPn-157" edge="1">
            <mxGeometry relative="1" as="geometry" />
          </mxCell>
        </object>
        <object id="gX3LE2zartJ2DNbec-Po-159">
          <ag_attributes />
          <ag_computed_attributes />
          <mxCell style="edgeStyle=none;rounded=0;orthogonalLoop=1;jettySize=auto;html=1;strokeWidth=2;startArrow=diamondThin;startFill=1;endArrow=none;endFill=0;strokeColor=#000000;" parent="1" source="13" target="A0BHLIg7a4nKn3OKpdOo-154" edge="1">
            <mxGeometry relative="1" as="geometry" />
          </mxCell>
        </object>
        <object label="Block Passenger Counting" Resources="2" Knowledge="2" Location="1" id="13">
          <ag_attributes label="NaN" Resources="5" Knowledge="5" Location="1" />
          <ag_computed_attributes fillColor="#40ff00" fontColor="#000000" value="1" />
          <ag_computed_attributes_function_reference ag_computed_attributes_function_reference="dbg60ff69g9a" />
          <ag_aggregation_function_reference ag_aggregation_function_reference="73f575i0ghij5" />
          <mxCell style="verticalAlign=top;align=center;fillColor=#d7e3bf;gradientColor=none;labelBackgroundColor=none;rounded=0;whiteSpace=wrap;shape=attackgraphs.node;spacingRight=20;" parent="1" vertex="1">
            <mxGeometry x="660" y="671" width="150" height="60" as="geometry" />
          </mxCell>
        </object>
        <object id="8JTDnxqXrUcjIwR7DWEQ-165">
          <ag_attributes />
          <ag_computed_attributes />
          <mxCell style="edgeStyle=none;rounded=0;orthogonalLoop=1;jettySize=auto;html=1;strokeWidth=2;startArrow=diamondThin;startFill=1;endArrow=none;endFill=0;strokeColor=#000000;" parent="1" source="14" target="8JTDnxqXrUcjIwR7DWEQ-164" edge="1">
            <mxGeometry relative="1" as="geometry" />
          </mxCell>
        </object>
        <object id="8JTDnxqXrUcjIwR7DWEQ-167">
          <ag_attributes />
          <ag_computed_attributes />
          <mxCell style="edgeStyle=none;orthogonalLoop=1;jettySize=auto;html=1;strokeWidth=2;startArrow=diamondThin;startFill=1;endArrow=none;endFill=0;curved=1;strokeColor=#000000;" parent="1" source="14" target="8JTDnxqXrUcjIwR7DWEQ-166" edge="1">
            <mxGeometry relative="1" as="geometry">
              <Array as="points">
                <mxPoint x="260" y="990" />
              </Array>
            </mxGeometry>
          </mxCell>
        </object>
        <object label="Manipulate App" Resources="2" Knowledge="2" Location="0" id="14">
          <ag_attributes label="NaN" Resources="4" Knowledge="5" Location="0" />
          <ag_computed_attributes fillColor="#40ff00" fontColor="#000000" value="1" />
          <ag_computed_attributes_function_reference ag_computed_attributes_function_reference="dbg60ff69g9a" />
          <ag_aggregation_function_reference ag_aggregation_function_reference="73f575i0ghij5" />
          <mxCell style="verticalAlign=middle;align=center;fillColor=#fee599;gradientColor=none;labelBackgroundColor=none;rounded=0;whiteSpace=wrap;shape=attackgraphs.node;" parent="1" vertex="1">
            <mxGeometry x="12" y="811" width="150" height="60" as="geometry" />
          </mxCell>
        </object>
        <object label="Manipulation of the data set&#10;(digital twin)" Resources="" Knowledge="" Location="" id="15">
          <ag_attributes label="NaN" Resources="4" Knowledge="5" Location="0" _marking="66" />
          <ag_computed_attributes fillColor="#40ff00" fontColor="#000000" value="1" />
          <ag_aggregation_function_reference ag_aggregation_function_reference="6b1d22791hih8" />
          <ag_computed_attributes_function_reference ag_computed_attributes_function_reference="dbg60ff69g9a" />
          <mxCell style="verticalAlign=top;align=center;fillColor=#FFFFFF;gradientColor=none;labelBackgroundColor=none;rounded=0;whiteSpace=wrap;shape=attackgraphs.node;" parent="1" vertex="1">
            <mxGeometry x="1750" y="481" width="224" height="67" as="geometry" />
          </mxCell>
        </object>
        <object label="Manipulation AI model" Resources="" Knowledge="" Location="" id="16">
          <ag_attributes label="NaN" Resources="5" Knowledge="5" Location="1" _marking="78" />
          <ag_computed_attributes fillColor="#40ff00" fontColor="#000000" value="1" />
          <ag_aggregation_function_reference ag_aggregation_function_reference="6b1d22791hih8" />
          <ag_computed_attributes_function_reference ag_computed_attributes_function_reference="dbg60ff69g9a" />
          <ag_enabled ag_enabled="1" />
          <mxCell style="verticalAlign=top;align=center;fillColor=#FFFFFF;gradientColor=none;labelBackgroundColor=none;rounded=0;whiteSpace=wrap;shape=attackgraphs.node;spacingRight=20;" parent="1" vertex="1">
            <mxGeometry x="1601" y="634" width="160" height="60" as="geometry" />
          </mxCell>
        </object>
        <object id="8JTDnxqXrUcjIwR7DWEQ-160">
          <ag_attributes />
          <ag_computed_attributes />
          <mxCell style="edgeStyle=none;rounded=0;orthogonalLoop=1;jettySize=auto;html=1;strokeWidth=2;startArrow=diamondThin;startFill=1;endArrow=none;endFill=0;strokeColor=#000000;" parent="1" source="17" target="Nkw-83D25Ah4-VtpksPn-175" edge="1">
            <mxGeometry relative="1" as="geometry" />
          </mxCell>
        </object>
        <object id="gX3LE2zartJ2DNbec-Po-183">
          <ag_attributes />
          <ag_computed_attributes />
          <mxCell style="edgeStyle=none;rounded=0;orthogonalLoop=1;jettySize=auto;html=1;strokeWidth=2;startArrow=diamondThin;startFill=1;endArrow=none;endFill=0;strokeColor=#000000;" parent="1" source="17" target="gX3LE2zartJ2DNbec-Po-179" edge="1">
            <mxGeometry relative="1" as="geometry" />
          </mxCell>
        </object>
        <object label="Manipulation of transmission" Resources="2" Knowledge="3" Location="0" id="17">
          <ag_attributes label="NaN" Resources="5" Knowledge="5" Location="1" />
          <ag_computed_attributes fillColor="#40ff00" fontColor="#000000" value="1" />
          <ag_computed_attributes_function_reference ag_computed_attributes_function_reference="dbg60ff69g9a" />
          <ag_aggregation_function_reference ag_aggregation_function_reference="73f575i0ghij5" />
          <mxCell style="verticalAlign=top;align=center;fillColor=#fee599;gradientColor=none;labelBackgroundColor=none;rounded=0;whiteSpace=wrap;shape=attackgraphs.node;" parent="1" vertex="1">
            <mxGeometry x="2022" y="480" width="224" height="48" as="geometry" />
          </mxCell>
        </object>
        <object label="Manipulation of the algorithm" Resources="" Knowledge="" Location="" id="18">
          <ag_attributes label="NaN" Resources="4" Knowledge="5" Location="0" _marking="66" />
          <ag_computed_attributes fillColor="#40ff00" fontColor="#000000" value="1" />
          <ag_aggregation_function_reference ag_aggregation_function_reference="6b1d22791hih8" />
          <ag_computed_attributes_function_reference ag_computed_attributes_function_reference="dbg60ff69g9a" />
          <mxCell style="verticalAlign=top;align=center;fillColor=#FFFFFF;gradientColor=none;labelBackgroundColor=none;rounded=0;whiteSpace=wrap;shape=attackgraphs.node;" parent="1" vertex="1">
            <mxGeometry x="1414" y="480" width="224" height="48" as="geometry" />
          </mxCell>
        </object>
        <object id="gX3LE2zartJ2DNbec-Po-154">
          <ag_attributes />
          <ag_computed_attributes />
          <mxCell style="rounded=0;orthogonalLoop=1;jettySize=auto;html=1;strokeWidth=2;startArrow=diamondThin;startFill=1;endArrow=none;endFill=0;strokeColor=#000000;" parent="1" source="19" target="gX3LE2zartJ2DNbec-Po-185" edge="1">
            <mxGeometry relative="1" as="geometry">
              <mxPoint x="1010" y="1141" as="targetPoint" />
            </mxGeometry>
          </mxCell>
        </object>
        <object label="GNSS&#10;Spoofing" Resources="3" Knowledge="3" Location="1" id="19">
          <ag_attributes label="NaN" Resources="5" Knowledge="5" Location="1" />
          <ag_computed_attributes fillColor="#40ff00" fontColor="#000000" value="1" />
          <ag_computed_attributes_function_reference ag_computed_attributes_function_reference="dbg60ff69g9a" />
          <ag_aggregation_function_reference ag_aggregation_function_reference="73f575i0ghij5" />
          <mxCell style="verticalAlign=top;align=center;fillColor=#fee599;gradientColor=none;labelBackgroundColor=none;rounded=0;whiteSpace=wrap;shape=attackgraphs.node;" parent="1" vertex="1">
            <mxGeometry x="490" y="671" width="150" height="60" as="geometry" />
          </mxCell>
        </object>
        <object label="Eavesdrop on communications" Resources="" Knowledge="" Location="" id="20">
          <ag_attributes label="NaN" Resources="5" Knowledge="5" Location="0" _marking="21" />
          <ag_computed_attributes fillColor="#40ff00" fontColor="#000000" value="1" />
          <ag_aggregation_function_reference ag_aggregation_function_reference="6b1d22791hih8" />
          <ag_computed_attributes_function_reference ag_computed_attributes_function_reference="dbg60ff69g9a" />
          <mxCell style="verticalAlign=top;align=center;fillColor=#FFFFFF;gradientColor=none;labelBackgroundColor=none;rounded=0;whiteSpace=wrap;shape=attackgraphs.node;spacingRight=20;" parent="1" vertex="1">
            <mxGeometry x="3626" y="481" width="160" height="47" as="geometry" />
          </mxCell>
        </object>
        <object id="Nkw-83D25Ah4-VtpksPn-176">
          <ag_attributes />
          <ag_computed_attributes />
          <mxCell style="edgeStyle=none;rounded=0;orthogonalLoop=1;jettySize=auto;html=1;strokeWidth=2;startArrow=diamondThin;startFill=1;endArrow=none;endFill=0;strokeColor=#000000;" parent="1" source="21" target="Nkw-83D25Ah4-VtpksPn-175" edge="1">
            <mxGeometry relative="1" as="geometry" />
          </mxCell>
        </object>
        <object label="Eavesdropping on communication channels" Resources="2" Knowledge="2" Location="0" id="21">
          <ag_attributes label="NaN" Resources="5" Knowledge="5" Location="0" />
          <ag_computed_attributes fillColor="#40ff00" fontColor="#000000" value="1" />
          <ag_computed_attributes_function_reference ag_computed_attributes_function_reference="dbg60ff69g9a" />
          <ag_aggregation_function_reference ag_aggregation_function_reference="73f575i0ghij5" />
          <mxCell style="verticalAlign=top;align=center;fillColor=#fee599;gradientColor=none;labelBackgroundColor=none;rounded=0;whiteSpace=wrap;shape=attackgraphs.node;spacingRight=20;" parent="1" vertex="1">
            <mxGeometry x="3690" y="634" width="144" height="60" as="geometry" />
          </mxCell>
        </object>
        <object id="qvmEMtH3Tldis6OgkI8p-153">
          <ag_attributes />
          <ag_computed_attributes />
          <mxCell style="edgeStyle=none;rounded=0;orthogonalLoop=1;jettySize=auto;strokeWidth=2;strokeColor=#000000;" parent="1" source="23" target="42" edge="1">
            <mxGeometry relative="1" as="geometry" />
          </mxCell>
        </object>
        <object label="Limit availability of the service" Resources="" Knowledge="" Location="" id="23">
          <ag_attributes label="NaN" Resources="5" Knowledge="3" Location="0" _marking="25" />
          <ag_computed_attributes fillColor="#d4ff00" fontColor="#000000" value="2" />
          <ag_aggregation_function_reference ag_aggregation_function_reference="6b1d22791hih8" />
          <ag_computed_attributes_function_reference ag_computed_attributes_function_reference="dbg60ff69g9a" />
          <mxCell style="verticalAlign=top;align=center;fillColor=#FFFFFF;gradientColor=none;labelBackgroundColor=none;rounded=0;whiteSpace=wrap;shape=attackgraphs.node;" parent="1" vertex="1">
            <mxGeometry x="2711" y="360" width="266" height="45" as="geometry" />
          </mxCell>
        </object>
        <object label="Limit availability of data" Resources="" Knowledge="" Location="" id="24">
          <ag_attributes label="NaN" Resources="5" Knowledge="3" Location="0" _marking="27" />
          <ag_computed_attributes fillColor="#d4ff00" fontColor="#000000" value="2" />
          <ag_aggregation_function_reference ag_aggregation_function_reference="6b1d22791hih8" />
          <ag_computed_attributes_function_reference ag_computed_attributes_function_reference="dbg60ff69g9a" />
          <mxCell style="verticalAlign=top;align=center;fillColor=#FFFFFF;gradientColor=none;labelBackgroundColor=none;rounded=0;whiteSpace=wrap;shape=attackgraphs.node;spacingRight=20;" parent="1" vertex="1">
            <mxGeometry x="2374" y="481" width="224" height="60" as="geometry" />
          </mxCell>
        </object>
        <object label="Limit availability of the algorithm" Resources="" Knowledge="" Location="" id="25">
          <ag_attributes label="NaN" Resources="5" Knowledge="3" Location="0" _marking="67" />
          <ag_computed_attributes fillColor="#d4ff00" fontColor="#000000" value="2" />
          <ag_aggregation_function_reference ag_aggregation_function_reference="6b1d22791hih8" />
          <ag_computed_attributes_function_reference ag_computed_attributes_function_reference="dbg60ff69g9a" />
          <mxCell style="verticalAlign=top;align=center;fillColor=#FFFFFF;gradientColor=none;labelBackgroundColor=none;rounded=0;whiteSpace=wrap;shape=attackgraphs.node;" parent="1" vertex="1">
            <mxGeometry x="2732" y="481" width="224" height="60" as="geometry" />
          </mxCell>
        </object>
        <object label="Limit availability of the transmission network" Resources="" Knowledge="" Location="" id="26">
          <ag_attributes label="5" Resources="4" Knowledge="5" Location="1" _marking="34" />
          <ag_computed_attributes fillColor="#40ff00" fontColor="#000000" value="1" />
          <ag_aggregation_function_reference ag_aggregation_function_reference="6b1d22791hih8" />
          <ag_computed_attributes_function_reference ag_computed_attributes_function_reference="dbg60ff69g9a" />
          <mxCell style="verticalAlign=top;align=center;fillColor=#FFFFFF;gradientColor=none;labelBackgroundColor=none;rounded=0;whiteSpace=wrap;shape=attackgraphs.node;" parent="1" vertex="1">
            <mxGeometry x="3006" y="480" width="224" height="60" as="geometry" />
          </mxCell>
        </object>
        <object id="Nkw-83D25Ah4-VtpksPn-170">
          <ag_attributes />
          <ag_computed_attributes />
          <mxCell style="edgeStyle=none;rounded=0;orthogonalLoop=1;jettySize=auto;html=1;strokeWidth=2;startArrow=diamondThin;startFill=1;endArrow=none;endFill=0;strokeColor=#000000;" parent="1" source="27" target="Nkw-83D25Ah4-VtpksPn-169" edge="1">
            <mxGeometry relative="1" as="geometry" />
          </mxCell>
        </object>
        <object label="Delete Data" Resources="3" Knowledge="3" Location="0" id="27">
          <ag_attributes label="NaN" Resources="5" Knowledge="3" Location="0" />
          <ag_computed_attributes fillColor="#d4ff00" fontColor="#000000" value="2" />
          <ag_computed_attributes_function_reference ag_computed_attributes_function_reference="dbg60ff69g9a" />
          <ag_aggregation_function_reference ag_aggregation_function_reference="73f575i0ghij5" />
          <mxCell style="verticalAlign=top;align=center;fillColor=#d7e3bf;gradientColor=none;labelBackgroundColor=none;rounded=0;whiteSpace=wrap;shape=attackgraphs.node;spacingRight=20;" parent="1" vertex="1">
            <mxGeometry x="2346" y="634" width="120" height="60" as="geometry" />
          </mxCell>
        </object>
        <object id="Nkw-83D25Ah4-VtpksPn-172">
          <ag_attributes />
          <ag_computed_attributes />
          <mxCell style="edgeStyle=none;rounded=0;orthogonalLoop=1;jettySize=auto;html=1;strokeWidth=2;startArrow=diamondThin;startFill=1;endArrow=none;endFill=0;strokeColor=#000000;" parent="1" source="29" target="Nkw-83D25Ah4-VtpksPn-171" edge="1">
            <mxGeometry relative="1" as="geometry" />
          </mxCell>
        </object>
        <object id="gX3LE2zartJ2DNbec-Po-189">
          <ag_attributes />
          <ag_computed_attributes />
          <mxCell style="edgeStyle=none;orthogonalLoop=1;jettySize=auto;html=1;strokeWidth=2;startArrow=diamondThin;startFill=1;endArrow=none;endFill=0;curved=1;strokeColor=#000000;" parent="1" source="29" target="gX3LE2zartJ2DNbec-Po-188" edge="1">
            <mxGeometry relative="1" as="geometry">
              <Array as="points" />
            </mxGeometry>
          </mxCell>
        </object>
        <object label="Correlate Data Sets" Resources="1" Knowledge="2" Location="0" id="29">
          <ag_attributes label="NaN" Resources="4" Knowledge="5" Location="0" />
          <ag_computed_attributes fillColor="#40ff00" fontColor="#000000" value="1" />
          <ag_computed_attributes_function_reference ag_computed_attributes_function_reference="dbg60ff69g9a" />
          <ag_aggregation_function_reference ag_aggregation_function_reference="73f575i0ghij5" />
          <mxCell style="verticalAlign=top;align=center;fillColor=#d7e3bf;gradientColor=none;labelBackgroundColor=none;rounded=0;whiteSpace=wrap;shape=attackgraphs.node;spacingRight=20;" parent="1" vertex="1">
            <mxGeometry x="4040" y="480" width="160" height="47" as="geometry" />
          </mxCell>
        </object>
        <object id="A0BHLIg7a4nKn3OKpdOo-156">
          <ag_attributes />
          <ag_computed_attributes />
          <mxCell style="edgeStyle=none;rounded=0;orthogonalLoop=1;jettySize=auto;html=1;strokeWidth=2;endArrow=none;startArrow=diamondThin;startFill=1;endFill=0;exitX=1;exitY=0.5;exitDx=0;exitDy=0;strokeColor=#000000;" parent="1" source="30" target="A0BHLIg7a4nKn3OKpdOo-154" edge="1">
            <mxGeometry relative="1" as="geometry">
              <Array as="points">
                <mxPoint x="1140" y="800" />
                <mxPoint x="1140" y="1050" />
              </Array>
            </mxGeometry>
          </mxCell>
        </object>
        <object label="Physical Manipulation" Resources="1" Knowledge="1" Location="1" id="30">
          <ag_attributes label="NaN" Resources="4" Knowledge="4" Location="1" />
          <ag_computed_attributes fillColor="#40ff00" fontColor="#000000" value="1" />
          <ag_computed_attributes_function_reference ag_computed_attributes_function_reference="dbg60ff69g9a" />
          <ag_aggregation_function_reference ag_aggregation_function_reference="73f575i0ghij5" />
          <mxCell style="verticalAlign=top;align=center;fillColor=#d7e3bf;gradientColor=none;labelBackgroundColor=none;rounded=0;whiteSpace=wrap;shape=attackgraphs.node;strokeColor=#000000;spacingRight=20;" parent="1" vertex="1">
            <mxGeometry x="960" y="748.5" width="150" height="45" as="geometry" />
          </mxCell>
        </object>
        <object id="A0BHLIg7a4nKn3OKpdOo-157">
          <ag_attributes />
          <ag_computed_attributes />
          <mxCell style="edgeStyle=none;rounded=0;orthogonalLoop=1;jettySize=auto;html=1;strokeWidth=2;endArrow=none;startArrow=diamondThin;startFill=1;endFill=0;exitX=1;exitY=0.5;exitDx=0;exitDy=0;strokeColor=#000000;align=left;verticalAlign=top;spacingLeft=2;" parent="1" source="31" target="A0BHLIg7a4nKn3OKpdOo-154" edge="1">
            <mxGeometry relative="1" as="geometry">
              <Array as="points">
                <mxPoint x="1140" y="1000" />
                <mxPoint x="1140" y="1050" />
              </Array>
            </mxGeometry>
          </mxCell>
        </object>
        <object label="Take over Remote Control" Resources="2" Knowledge="2" Location="1" id="31">
          <ag_attributes label="NaN" Resources="4" Knowledge="4" Location="1" />
          <ag_computed_attributes fillColor="#40ff00" fontColor="#000000" value="1" />
          <ag_computed_attributes_function_reference ag_computed_attributes_function_reference="dbg60ff69g9a" />
          <ag_aggregation_function_reference ag_aggregation_function_reference="73f575i0ghij5" />
          <mxCell style="verticalAlign=top;align=center;fillColor=#d7e3bf;gradientColor=none;labelBackgroundColor=none;rounded=0;whiteSpace=wrap;shape=attackgraphs.node;spacingRight=20;" parent="1" vertex="1">
            <mxGeometry x="960" y="950" width="150" height="60" as="geometry" />
          </mxCell>
        </object>
        <object id="Nkw-83D25Ah4-VtpksPn-155">
          <ag_attributes />
          <ag_computed_attributes />
          <mxCell style="edgeStyle=none;orthogonalLoop=1;jettySize=auto;html=1;strokeWidth=4;startArrow=diamondThin;startFill=1;endArrow=none;endFill=0;exitX=1;exitY=0.5;exitDx=0;exitDy=0;curved=1;strokeColor=#000000;" parent="1" source="32" target="gX3LE2zartJ2DNbec-Po-164" edge="1">
            <mxGeometry relative="1" as="geometry">
              <mxPoint x="1480" y="881" as="targetPoint" />
              <Array as="points">
                <mxPoint x="1480" y="900" />
              </Array>
            </mxGeometry>
          </mxCell>
        </object>
        <object id="A0BHLIg7a4nKn3OKpdOo-155">
          <ag_attributes />
          <ag_computed_attributes />
          <mxCell style="edgeStyle=none;rounded=0;orthogonalLoop=1;jettySize=auto;html=1;strokeWidth=2;endArrow=none;startArrow=diamondThin;startFill=1;endFill=0;exitX=1;exitY=0.75;exitDx=0;exitDy=0;strokeColor=#000000;" parent="1" source="32" target="A0BHLIg7a4nKn3OKpdOo-154" edge="1">
            <mxGeometry relative="1" as="geometry">
              <Array as="points">
                <mxPoint x="1140" y="880" />
                <mxPoint x="1140" y="1050" />
              </Array>
            </mxGeometry>
          </mxCell>
        </object>
        <object label="Forge Image Signal" Resources="2" Knowledge="2" Location="0" id="32">
          <ag_attributes label="NaN" Resources="5" Knowledge="5" Location="0" />
          <ag_computed_attributes fillColor="#40ff00" fontColor="#000000" value="1" />
          <ag_computed_attributes_function_reference ag_computed_attributes_function_reference="dbg60ff69g9a" />
          <ag_aggregation_function_reference ag_aggregation_function_reference="73f575i0ghij5" />
          <mxCell style="verticalAlign=top;align=center;fillColor=#d7e3bf;gradientColor=none;labelBackgroundColor=none;rounded=0;whiteSpace=wrap;shape=attackgraphs.node;spacingRight=20;" parent="1" vertex="1">
            <mxGeometry x="960" y="811" width="150" height="45" as="geometry" />
          </mxCell>
        </object>
        <object id="A0BHLIg7a4nKn3OKpdOo-161">
          <ag_attributes />
          <ag_computed_attributes />
          <mxCell style="edgeStyle=none;rounded=0;orthogonalLoop=1;jettySize=auto;html=1;strokeWidth=2;endArrow=none;startArrow=diamondThin;startFill=1;endFill=0;exitX=1;exitY=0.5;exitDx=0;exitDy=0;jumpStyle=arc;strokeColor=#000000;" parent="1" source="33" target="A0BHLIg7a4nKn3OKpdOo-160" edge="1">
            <mxGeometry relative="1" as="geometry" />
          </mxCell>
        </object>
        <object label="Manipulate control software" Resources="3" Knowledge="3" Location="0" id="33">
          <ag_attributes label="NaN" Resources="5" Knowledge="5" Location="0" />
          <ag_computed_attributes fillColor="#40ff00" fontColor="#000000" value="1" />
          <ag_computed_attributes_function_reference ag_computed_attributes_function_reference="dbg60ff69g9a" />
          <ag_aggregation_function_reference ag_aggregation_function_reference="73f575i0ghij5" />
          <mxCell style="verticalAlign=top;align=center;fillColor=#d7e3bf;gradientColor=none;labelBackgroundColor=none;rounded=0;whiteSpace=wrap;shape=attackgraphs.node;spacingRight=20;" parent="1" vertex="1">
            <mxGeometry x="960" y="871" width="150" height="60" as="geometry" />
          </mxCell>
        </object>
        <object id="Nkw-83D25Ah4-VtpksPn-178">
          <ag_attributes />
          <ag_computed_attributes />
          <mxCell style="edgeStyle=none;rounded=0;orthogonalLoop=1;jettySize=auto;html=1;strokeWidth=2;startArrow=diamondThin;startFill=1;endArrow=none;endFill=0;strokeColor=#000000;" parent="1" source="34" target="Nkw-83D25Ah4-VtpksPn-177" edge="1">
            <mxGeometry relative="1" as="geometry" />
          </mxCell>
        </object>
        <object label="5G Jamming" Resources="2" Knowledge="2" Location="1" id="34">
          <ag_attributes label="5" Resources="4" Knowledge="5" Location="1" />
          <ag_computed_attributes fillColor="#40ff00" fontColor="#000000" value="1" />
          <ag_computed_attributes_function_reference ag_computed_attributes_function_reference="dbg60ff69g9a" />
          <ag_aggregation_function_reference ag_aggregation_function_reference="73f575i0ghij5" />
          <mxCell style="verticalAlign=top;align=center;fillColor=#fee599;gradientColor=none;labelBackgroundColor=none;rounded=0;whiteSpace=wrap;shape=attackgraphs.node;spacingRight=20;" parent="1" vertex="1">
            <mxGeometry x="3070" y="634" width="130" height="60" as="geometry" />
          </mxCell>
        </object>
        <object id="Nkw-83D25Ah4-VtpksPn-163">
          <ag_attributes />
          <ag_computed_attributes />
          <mxCell style="edgeStyle=none;rounded=0;orthogonalLoop=1;jettySize=auto;html=1;strokeWidth=2;startArrow=diamondThin;startFill=1;endArrow=none;endFill=0;strokeColor=#000000;" parent="1" source="41" target="Nkw-83D25Ah4-VtpksPn-160" edge="1">
            <mxGeometry relative="1" as="geometry" />
          </mxCell>
        </object>
        <object label="Inject ransomware" Resources="2" Knowledge="3" Location="0" id="41">
          <ag_attributes label="NaN" Resources="4" Knowledge="5" Location="0" />
          <ag_computed_attributes fillColor="#40ff00" fontColor="#000000" value="1" />
          <ag_computed_attributes_function_reference ag_computed_attributes_function_reference="dbg60ff69g9a" />
          <ag_aggregation_function_reference ag_aggregation_function_reference="73f575i0ghij5" />
          <mxCell style="verticalAlign=top;align=center;fillColor=#d7e3bf;gradientColor=none;labelBackgroundColor=none;rounded=0;whiteSpace=wrap;shape=attackgraphs.node;spacingRight=20;" parent="1" vertex="1">
            <mxGeometry x="3322" y="634" width="144" height="60" as="geometry" />
          </mxCell>
        </object>
        <object label="Corrupt Data" Resources="" Knowledge="" Location="" id="42">
          <ag_attributes label="NaN" Resources="4" Knowledge="5" Location="0" _marking="41" />
          <ag_computed_attributes fillColor="#40ff00" fontColor="#000000" value="1" />
          <ag_aggregation_function_reference ag_aggregation_function_reference="6b1d22791hih8" />
          <ag_computed_attributes_function_reference ag_computed_attributes_function_reference="dbg60ff69g9a" />
          <mxCell style="verticalAlign=top;align=center;fillColor=#FFFFFF;gradientColor=none;labelBackgroundColor=none;rounded=0;whiteSpace=wrap;shape=attackgraphs.node;spacingRight=20;" parent="1" vertex="1">
            <mxGeometry x="3270" y="481" width="150" height="60" as="geometry" />
          </mxCell>
        </object>
        <object label="Extract Data" Resources="" Knowledge="" Location="" id="43">
          <ag_attributes label="NaN" Resources="4" Knowledge="4" Location="1" _marking="22" />
          <ag_computed_attributes fillColor="#40ff00" fontColor="#000000" value="1" />
          <ag_aggregation_function_reference ag_aggregation_function_reference="6b1d22791hih8" />
          <ag_computed_attributes_function_reference ag_computed_attributes_function_reference="dbg60ff69g9a" />
          <mxCell style="verticalAlign=top;align=center;fillColor=#FFFFFF;gradientColor=none;labelBackgroundColor=none;rounded=0;whiteSpace=wrap;shape=attackgraphs.node;" parent="1" vertex="1">
            <mxGeometry x="3462" y="481" width="144" height="47" as="geometry" />
          </mxCell>
        </object>
        <object label="Violation of&#10;Laws and Regulations" id="44">
          <ag_attributes _risk="L" _marking="45;5" _weight="45:2;5:3" />
          <ag_computed_attributes fillColor="#40ff00" fontColor="#000000" value="L" />
          <ag_aggregation_function_reference ag_aggregation_function_reference="egf49jfgj408" />
          <ag_computed_attributes_function_reference ag_computed_attributes_function_reference="6c831697g9i0a" />
          <mxCell style="shape=attackgraphs.node;rounded=1" parent="1" vertex="1">
            <mxGeometry x="3698" y="120" width="180" height="48" as="geometry" />
          </mxCell>
        </object>
        <object label="Stalk individual user" Resources="" Knowledge="" Location="" id="45">
          <ag_attributes label="NaN" Resources="4" Knowledge="5" Location="0" _marking="29" />
          <ag_computed_attributes fillColor="#40ff00" fontColor="#000000" value="1" />
          <ag_aggregation_function_reference ag_aggregation_function_reference="6b1d22791hih8" />
          <ag_computed_attributes_function_reference ag_computed_attributes_function_reference="dbg60ff69g9a" />
          <mxCell style="verticalAlign=top;align=center;fillColor=#FFFFFF;gradientColor=none;labelBackgroundColor=none;rounded=0;whiteSpace=wrap;shape=attackgraphs.node;spacingRight=20;" parent="1" vertex="1">
            <mxGeometry x="3758" y="361" width="180" height="60" as="geometry" />
          </mxCell>
        </object>
        <object label="Extortion" Resources="" Knowledge="" Location="" id="46">
          <ag_attributes label="NaN" Resources="4" Knowledge="4" Location="1" _marking="43" />
          <ag_computed_attributes fillColor="#40ff00" fontColor="#000000" value="1" />
          <ag_aggregation_function_reference ag_aggregation_function_reference="6b1d22791hih8" />
          <ag_computed_attributes_function_reference ag_computed_attributes_function_reference="dbg60ff69g9a" />
          <mxCell style="verticalAlign=top;align=center;fillColor=#FFFFFF;gradientColor=none;labelBackgroundColor=none;rounded=0;whiteSpace=wrap;shape=attackgraphs.node;" parent="1" vertex="1">
            <mxGeometry x="3323.5" y="360.5" width="144" height="47" as="geometry" />
          </mxCell>
        </object>
        <object label="Financial Damage&#10;Operator" id="47">
          <ag_attributes _risk="L" _marking="8JTDnxqXrUcjIwR7DWEQ-169" _weight="8JTDnxqXrUcjIwR7DWEQ-169:1" />
          <ag_computed_attributes fillColor="#40ff00" fontColor="#000000" value="L" />
          <ag_aggregation_function_reference ag_aggregation_function_reference="egf49jfgj408" />
          <ag_computed_attributes_function_reference ag_computed_attributes_function_reference="6c831697g9i0a" />
          <mxCell style="shape=attackgraphs.node;rounded=1" parent="1" vertex="1">
            <mxGeometry x="3424" y="120" width="180" height="48" as="geometry" />
          </mxCell>
        </object>
        <object label="Reputational Damage Operator" id="53">
          <ag_attributes _risk="L" _marking="8JTDnxqXrUcjIwR7DWEQ-169;4;gX3LE2zartJ2DNbec-Po-174" _weight="8JTDnxqXrUcjIwR7DWEQ-169:1;4:3;gX3LE2zartJ2DNbec-Po-174:1" />
          <ag_computed_attributes fillColor="#40ff00" fontColor="#000000" value="L" />
          <ag_aggregation_function_reference ag_aggregation_function_reference="egf49jfgj408" />
          <ag_computed_attributes_function_reference ag_computed_attributes_function_reference="6c831697g9i0a" />
          <mxCell style="shape=attackgraphs.node;rounded=1" parent="1" vertex="1">
            <mxGeometry x="2200" y="120" width="208" height="48" as="geometry" />
          </mxCell>
        </object>
        <object label="Market manipulation to the disadvantage/advantage of a group" id="54">
          <ag_attributes _risk="L" _marking="4" _weight="4:2" />
          <ag_computed_attributes fillColor="#40ff00" fontColor="#000000" value="L" />
          <ag_aggregation_function_reference ag_aggregation_function_reference="egf49jfgj408" />
          <ag_computed_attributes_function_reference ag_computed_attributes_function_reference="6c831697g9i0a" />
          <mxCell style="shape=attackgraphs.node;rounded=1" parent="1" vertex="1">
            <mxGeometry x="1914" y="120" width="224" height="48" as="geometry" />
          </mxCell>
        </object>
        <object label="Incite Chaos" id="55">
          <ag_attributes _risk="L" _marking="4" _weight="4:3" />
          <ag_computed_attributes fillColor="#40ff00" fontColor="#000000" value="L" />
          <ag_aggregation_function_reference ag_aggregation_function_reference="egf49jfgj408" />
          <ag_computed_attributes_function_reference ag_computed_attributes_function_reference="6c831697g9i0a" />
          <mxCell style="shape=attackgraphs.node;rounded=1" parent="1" vertex="1">
            <mxGeometry x="1740" y="120" width="137" height="48" as="geometry" />
          </mxCell>
        </object>
        <object label="Obstruction of punishment" id="56">
          <ag_attributes _risk="L" _marking="4" _weight="4:3" />
          <ag_computed_attributes fillColor="#40ff00" fontColor="#000000" value="L" />
          <ag_aggregation_function_reference ag_aggregation_function_reference="egf49jfgj408" />
          <ag_computed_attributes_function_reference ag_computed_attributes_function_reference="6c831697g9i0a" />
          <mxCell style="shape=attackgraphs.node;rounded=1" parent="1" vertex="1">
            <mxGeometry x="1590" y="120" width="133" height="48" as="geometry" />
          </mxCell>
        </object>
        <object id="Nkw-83D25Ah4-VtpksPn-179">
          <ag_attributes />
          <ag_computed_attributes />
          <mxCell style="edgeStyle=none;rounded=0;orthogonalLoop=1;jettySize=auto;html=1;strokeWidth=2;startArrow=diamondThin;startFill=1;endArrow=none;endFill=0;strokeColor=#000000;" parent="1" source="66" target="Nkw-83D25Ah4-VtpksPn-160" edge="1">
            <mxGeometry relative="1" as="geometry" />
          </mxCell>
        </object>
        <object label="Insert and Exploit Backdoors" Resources="2" Knowledge="2" Location="0" id="66">
          <ag_attributes label="NaN" Resources="4" Knowledge="5" Location="0" />
          <ag_computed_attributes fillColor="#40ff00" fontColor="#000000" value="1" />
          <ag_computed_attributes_function_reference ag_computed_attributes_function_reference="dbg60ff69g9a" />
          <ag_aggregation_function_reference ag_aggregation_function_reference="73f575i0ghij5" />
          <mxCell style="verticalAlign=top;align=center;fillColor=#d7e3bf;gradientColor=none;labelBackgroundColor=none;rounded=0;whiteSpace=wrap;shape=attackgraphs.node;spacingRight=20;" parent="1" vertex="1">
            <mxGeometry x="2070" y="634" width="188" height="60" as="geometry" />
          </mxCell>
        </object>
        <object id="Nkw-83D25Ah4-VtpksPn-167">
          <ag_attributes />
          <ag_computed_attributes />
          <mxCell style="edgeStyle=none;rounded=0;orthogonalLoop=1;jettySize=auto;html=1;strokeWidth=2;startArrow=diamondThin;startFill=1;endArrow=none;endFill=0;strokeColor=#000000;" parent="1" source="67" target="Nkw-83D25Ah4-VtpksPn-165" edge="1">
            <mxGeometry relative="1" as="geometry" />
          </mxCell>
        </object>
        <object label="Shut down/destroy/restrict resources" Resources="2" Knowledge="2" Location="0" id="67">
          <ag_attributes label="NaN" Resources="5" Knowledge="3" Location="0" />
          <ag_computed_attributes fillColor="#d4ff00" fontColor="#000000" value="2" />
          <ag_computed_attributes_function_reference ag_computed_attributes_function_reference="dbg60ff69g9a" />
          <ag_aggregation_function_reference ag_aggregation_function_reference="73f575i0ghij5" />
          <mxCell style="verticalAlign=top;align=center;fillColor=#fee599;gradientColor=none;labelBackgroundColor=none;rounded=0;whiteSpace=wrap;shape=attackgraphs.node;spacingRight=20;" parent="1" vertex="1">
            <mxGeometry x="2833.5" y="634" width="206" height="60" as="geometry" />
          </mxCell>
        </object>
        <object id="68">
          <ag_attributes />
          <ag_computed_attributes />
          <mxCell style="fillColor=#FFFFFF;gradientColor=none;strokeColor=none;labelBackgroundColor=none;rounded=0;whiteSpace=wrap;" parent="1" vertex="1">
            <mxGeometry x="2527" y="719" width="16" height="16" as="geometry" />
          </mxCell>
        </object>
        <object id="69">
          <ag_attributes />
          <ag_computed_attributes />
          <mxCell style="fillColor=#FFFFFF;gradientColor=none;strokeColor=none;labelBackgroundColor=none;rounded=0;whiteSpace=wrap;" parent="1" vertex="1">
            <mxGeometry x="2573" y="719" width="16" height="16" as="geometry" />
          </mxCell>
        </object>
        <object id="70">
          <ag_attributes />
          <ag_computed_attributes />
          <mxCell style="fillColor=#FFFFFF;gradientColor=none;strokeColor=none;labelBackgroundColor=none;rounded=0;whiteSpace=wrap;" parent="1" vertex="1">
            <mxGeometry x="2619" y="719" width="16" height="16" as="geometry" />
          </mxCell>
        </object>
        <object id="Nkw-83D25Ah4-VtpksPn-162">
          <ag_attributes />
          <ag_computed_attributes />
          <mxCell style="edgeStyle=none;rounded=0;orthogonalLoop=1;jettySize=auto;html=1;strokeWidth=2;startArrow=diamondThin;startFill=1;endArrow=none;endFill=0;strokeColor=#000000;" parent="1" source="76" target="Nkw-83D25Ah4-VtpksPn-160" edge="1">
            <mxGeometry relative="1" as="geometry" />
          </mxCell>
        </object>
        <object label="Inject malware" Resources="3" Knowledge="3" Location="0" id="76">
          <ag_attributes label="NaN" Resources="5" Knowledge="5" Location="0" />
          <ag_computed_attributes fillColor="#40ff00" fontColor="#000000" value="1" />
          <ag_computed_attributes_function_reference ag_computed_attributes_function_reference="dbg60ff69g9a" />
          <ag_aggregation_function_reference ag_aggregation_function_reference="73f575i0ghij5" />
          <mxCell style="verticalAlign=top;align=center;fillColor=#d7e3bf;gradientColor=none;labelBackgroundColor=none;rounded=0;whiteSpace=wrap;shape=attackgraphs.node;spacingRight=20;" parent="1" vertex="1">
            <mxGeometry x="3514" y="634" width="144" height="60" as="geometry" />
          </mxCell>
        </object>
        <object id="gX3LE2zartJ2DNbec-Po-165">
          <ag_attributes />
          <ag_computed_attributes />
          <mxCell style="edgeStyle=none;rounded=0;orthogonalLoop=1;jettySize=auto;html=1;strokeWidth=4;startArrow=diamondThin;startFill=1;endArrow=none;endFill=0;strokeColor=#000000;" parent="1" source="78" target="gX3LE2zartJ2DNbec-Po-164" edge="1">
            <mxGeometry relative="1" as="geometry" />
          </mxCell>
        </object>
        <object id="gX3LE2zartJ2DNbec-Po-168">
          <ag_attributes />
          <ag_computed_attributes />
          <mxCell style="edgeStyle=none;rounded=0;orthogonalLoop=1;jettySize=auto;html=1;strokeWidth=2;startArrow=diamondThin;startFill=1;endArrow=none;endFill=0;strokeColor=#000000;" parent="1" source="78" target="Nkw-83D25Ah4-VtpksPn-174" edge="1">
            <mxGeometry relative="1" as="geometry">
              <mxPoint x="4220" y="1131" as="targetPoint" />
            </mxGeometry>
          </mxCell>
        </object>
        <object id="gX3LE2zartJ2DNbec-Po-172">
          <ag_attributes />
          <ag_computed_attributes />
          <mxCell style="edgeStyle=none;rounded=0;orthogonalLoop=1;jettySize=auto;html=1;strokeWidth=2;startArrow=diamondThin;startFill=1;endArrow=none;endFill=0;strokeColor=#000000;" parent="1" source="78" target="gX3LE2zartJ2DNbec-Po-170" edge="1">
            <mxGeometry relative="1" as="geometry" />
          </mxCell>
        </object>
        <object label="Replace AI model with manipulated one" Resources="4" Knowledge="4" Location="0" id="78">
          <ag_attributes label="NaN" Resources="5" Knowledge="5" Location="1" />
          <ag_computed_attributes fillColor="#40ff00" fontColor="#000000" value="1" />
          <ag_computed_attributes_function_reference ag_computed_attributes_function_reference="dbg60ff69g9a" />
          <ag_aggregation_function_reference ag_aggregation_function_reference="73f575i0ghij5" />
          <mxCell style="verticalAlign=top;align=center;fillColor=#d7e3bf;gradientColor=none;labelBackgroundColor=none;rounded=0;whiteSpace=wrap;shape=attackgraphs.node;spacingRight=20;" parent="1" vertex="1">
            <mxGeometry x="1638" y="748.5" width="176" height="75" as="geometry" />
          </mxCell>
        </object>
        <object id="Nkw-83D25Ah4-VtpksPn-161">
          <ag_attributes />
          <ag_computed_attributes />
          <mxCell style="edgeStyle=none;rounded=0;orthogonalLoop=1;jettySize=auto;html=1;strokeWidth=2;startArrow=diamondThin;startFill=1;endArrow=none;endFill=0;strokeColor=#000000;" parent="1" source="79" target="Nkw-83D25Ah4-VtpksPn-160" edge="1">
            <mxGeometry relative="1" as="geometry" />
          </mxCell>
        </object>
        <object label="Inject malware" Resources="3" Knowledge="3" Location="0" id="79">
          <ag_attributes label="NaN" Resources="5" Knowledge="5" Location="0" />
          <ag_computed_attributes fillColor="#40ff00" fontColor="#000000" value="1" />
          <ag_computed_attributes_function_reference ag_computed_attributes_function_reference="dbg60ff69g9a" />
          <ag_aggregation_function_reference ag_aggregation_function_reference="73f575i0ghij5" />
          <mxCell style="verticalAlign=top;align=center;fillColor=#d7e3bf;gradientColor=none;labelBackgroundColor=none;rounded=0;whiteSpace=wrap;shape=attackgraphs.node;spacingRight=20;" parent="1" vertex="1">
            <mxGeometry x="1860" y="634" width="144" height="60" as="geometry" />
          </mxCell>
        </object>
        <object label="" id="80">
          <ag_attributes />
          <ag_computed_attributes />
          <mxCell style="edgeStyle=none;startArrow=none;endArrow=classic;startSize=9;endSize=9;spacingTop=0;spacingBottom=0;spacingLeft=0;spacingRight=0;verticalAlign=middle;labelBackgroundColor=#ffffff;rounded=0;align=center;strokeWidth=2;strokeColor=#000000;" parent="1" source="15" target="79" edge="1">
            <mxGeometry relative="1" as="geometry">
              <mxPoint x="-1" as="offset" />
              <Array as="points" />
            </mxGeometry>
          </mxCell>
        </object>
        <object label="3" id="83">
          <ag_attributes />
          <ag_computed_attributes />
          <mxCell style="html=1;edgeStyle=none;startArrow=none;endArrow=classic;startSize=9;endSize=9;spacingTop=0;spacingBottom=0;spacingLeft=0;spacingRight=0;verticalAlign=middle;labelBackgroundColor=#ffffff;rounded=0;strokeWidth=2;fontSize=15;strokeColor=#000000;" parent="1" source="47" target="8JTDnxqXrUcjIwR7DWEQ-169" edge="1">
            <mxGeometry relative="1" as="geometry">
              <mxPoint y="-1" as="offset" />
              <Array as="points" />
              <mxPoint x="3520" y="190" as="sourcePoint" />
            </mxGeometry>
          </mxCell>
        </object>
        <object id="84">
          <ag_attributes />
          <ag_computed_attributes />
          <mxCell style="edgeStyle=none;startArrow=none;endArrow=classic;startSize=9;endSize=9;spacingTop=0;spacingBottom=0;spacingLeft=0;spacingRight=0;verticalAlign=middle;labelBackgroundColor=#ffffff;rounded=0;exitX=0;exitY=0.75;exitDx=0;exitDy=0;exitPerimeter=0;strokeWidth=2;strokeColor=#000000;" parent="1" source="H8-0O90GaupJun0dLJcG-154" target="13" edge="1">
            <mxGeometry relative="1" as="geometry">
              <mxPoint x="-1" y="-1" as="offset" />
              <Array as="points" />
              <mxPoint x="681" y="621" as="sourcePoint" />
            </mxGeometry>
          </mxCell>
        </object>
        <object label="" id="85">
          <ag_attributes />
          <ag_computed_attributes />
          <mxCell style="edgeStyle=none;startArrow=none;endArrow=classic;startSize=9;endSize=9;spacingTop=0;spacingBottom=0;spacingLeft=0;spacingRight=0;verticalAlign=middle;labelBackgroundColor=#ffffff;rounded=0;exitX=0;exitY=0.25;exitDx=0;exitDy=0;exitPerimeter=0;strokeWidth=2;strokeColor=#000000;" parent="1" source="H8-0O90GaupJun0dLJcG-154" target="19" edge="1">
            <mxGeometry relative="1" as="geometry">
              <mxPoint as="offset" />
              <Array as="points" />
              <mxPoint x="690" y="621" as="targetPoint" />
            </mxGeometry>
          </mxCell>
        </object>
        <object id="87">
          <ag_attributes />
          <ag_computed_attributes />
          <mxCell style="edgeStyle=none;startArrow=none;endArrow=classic;startSize=9;endSize=9;spacingTop=0;spacingBottom=0;spacingLeft=0;spacingRight=0;verticalAlign=middle;labelBackgroundColor=#ffffff;rounded=0;exitX=0;exitY=0.75;exitDx=0;exitDy=0;exitPerimeter=0;strokeWidth=2;strokeColor=#000000;" parent="1" source="H8-0O90GaupJun0dLJcG-153" target="11" edge="1">
            <mxGeometry relative="1" as="geometry">
              <mxPoint x="-1" y="-1" as="offset" />
              <Array as="points" />
              <mxPoint x="490" y="621" as="sourcePoint" />
            </mxGeometry>
          </mxCell>
        </object>
        <object id="88">
          <ag_attributes />
          <ag_computed_attributes />
          <mxCell style="edgeStyle=none;startArrow=none;endArrow=classic;startSize=9;endSize=9;spacingTop=0;spacingBottom=0;spacingLeft=0;spacingRight=0;verticalAlign=middle;labelBackgroundColor=#ffffff;rounded=0;exitX=0;exitY=0.25;exitDx=0;exitDy=0;exitPerimeter=0;strokeWidth=2;strokeColor=#000000;" parent="1" source="H8-0O90GaupJun0dLJcG-153" target="12" edge="1">
            <mxGeometry relative="1" as="geometry">
              <mxPoint x="-1" as="offset" />
              <Array as="points" />
              <mxPoint x="380" y="621" as="sourcePoint" />
            </mxGeometry>
          </mxCell>
        </object>
        <object id="90">
          <ag_attributes />
          <ag_computed_attributes />
          <mxCell style="edgeStyle=none;startArrow=none;endArrow=classic;startSize=9;endSize=9;spacingTop=0;spacingBottom=0;spacingLeft=0;spacingRight=0;verticalAlign=middle;labelBackgroundColor=#ffffff;rounded=0;strokeWidth=2;strokeColor=#000000;" parent="1" source="45" target="29" edge="1">
            <mxGeometry relative="1" as="geometry">
              <mxPoint as="offset" />
              <Array as="points" />
            </mxGeometry>
          </mxCell>
        </object>
        <object label="3" id="91">
          <ag_attributes />
          <ag_computed_attributes />
          <mxCell style="edgeStyle=none;startArrow=none;endArrow=classic;startSize=9;endSize=9;spacingTop=0;spacingBottom=0;spacingLeft=0;spacingRight=0;verticalAlign=middle;labelBackgroundColor=#ffffff;rounded=0;entryX=0.39285714285714285;entryY=0;entryDx=0;entryDy=0;entryPerimeter=0;strokeWidth=2;fontSize=15;strokeColor=#000000;" parent="1" source="56" target="4" edge="1">
            <mxGeometry relative="1" as="geometry">
              <mxPoint x="-1" y="-1" as="offset" />
              <Array as="points" />
            </mxGeometry>
          </mxCell>
        </object>
        <object label="3" id="92">
          <ag_attributes />
          <ag_computed_attributes />
          <mxCell style="edgeStyle=none;startArrow=none;endArrow=classic;startSize=9;endSize=9;spacingTop=0;spacingBottom=0;spacingLeft=0;spacingRight=0;verticalAlign=middle;labelBackgroundColor=#ffffff;rounded=0;entryX=0.45982142857142855;entryY=0;entryDx=0;entryDy=0;entryPerimeter=0;strokeWidth=2;fontSize=15;strokeColor=#000000;" parent="1" source="55" target="4" edge="1">
            <mxGeometry relative="1" as="geometry">
              <mxPoint as="offset" />
              <Array as="points" />
            </mxGeometry>
          </mxCell>
        </object>
        <object label="2" id="93">
          <ag_attributes />
          <ag_computed_attributes />
          <mxCell style="edgeStyle=none;startArrow=none;endArrow=classic;startSize=9;endSize=9;spacingTop=0;spacingBottom=0;spacingLeft=0;spacingRight=0;verticalAlign=middle;labelBackgroundColor=#ffffff;rounded=0;entryX=0.5625;entryY=0;entryDx=0;entryDy=0;entryPerimeter=0;strokeWidth=2;fontSize=15;strokeColor=#000000;" parent="1" source="54" target="4" edge="1">
            <mxGeometry relative="1" as="geometry">
              <mxPoint x="-1" as="offset" />
              <Array as="points" />
            </mxGeometry>
          </mxCell>
        </object>
        <object id="94">
          <ag_attributes />
          <ag_computed_attributes />
          <mxCell style="edgeStyle=none;startArrow=none;endArrow=classic;startSize=9;endSize=9;spacingTop=0;spacingBottom=0;spacingLeft=0;spacingRight=0;verticalAlign=middle;labelBackgroundColor=#ffffff;rounded=0;exitX=0;exitY=0.75;exitDx=0;exitDy=0;exitPerimeter=0;entryX=1;entryY=0.2708333333333333;entryDx=0;entryDy=0;entryPerimeter=0;strokeWidth=2;strokeColor=#000000;" parent="1" source="4" target="8" edge="1">
            <mxGeometry relative="1" as="geometry">
              <mxPoint x="-1" as="offset" />
              <Array as="points" />
            </mxGeometry>
          </mxCell>
        </object>
        <object id="95">
          <ag_attributes />
          <ag_computed_attributes />
          <mxCell style="edgeStyle=none;startArrow=none;endArrow=classic;startSize=9;endSize=9;spacingTop=0;spacingBottom=0;spacingLeft=0;spacingRight=0;verticalAlign=middle;labelBackgroundColor=#ffffff;rounded=0;strokeWidth=2;entryX=1;entryY=0.5;entryDx=0;entryDy=0;entryPerimeter=0;strokeColor=#000000;" parent="1" source="8" target="H8-0O90GaupJun0dLJcG-153" edge="1">
            <mxGeometry relative="1" as="geometry">
              <mxPoint x="-1" as="offset" />
              <Array as="points" />
              <mxPoint x="500" y="531" as="sourcePoint" />
            </mxGeometry>
          </mxCell>
        </object>
        <object id="96">
          <ag_attributes />
          <ag_computed_attributes />
          <mxCell style="edgeStyle=none;startArrow=none;endArrow=classic;startSize=9;endSize=9;spacingTop=0;spacingBottom=0;spacingLeft=0;spacingRight=0;verticalAlign=middle;labelBackgroundColor=#ffffff;rounded=0;strokeWidth=2;strokeColor=#000000;" parent="1" source="45" target="20" edge="1">
            <mxGeometry relative="1" as="geometry">
              <mxPoint x="-1" as="offset" />
              <Array as="points" />
            </mxGeometry>
          </mxCell>
        </object>
        <object id="97">
          <ag_attributes />
          <ag_computed_attributes />
          <mxCell style="edgeStyle=none;startArrow=none;endArrow=classic;startSize=9;endSize=9;spacingTop=0;spacingBottom=0;spacingLeft=0;spacingRight=0;verticalAlign=middle;labelBackgroundColor=#ffffff;rounded=0;strokeWidth=2;strokeColor=#000000;" parent="1" source="16" target="78" edge="1">
            <mxGeometry relative="1" as="geometry">
              <mxPoint x="-1" y="-1" as="offset" />
              <Array as="points" />
            </mxGeometry>
          </mxCell>
        </object>
        <object id="98">
          <ag_attributes />
          <ag_computed_attributes />
          <mxCell style="edgeStyle=none;startArrow=none;endArrow=classic;startSize=9;endSize=9;spacingTop=0;spacingBottom=0;spacingLeft=0;spacingRight=0;verticalAlign=middle;labelBackgroundColor=#ffffff;rounded=0;strokeWidth=2;strokeColor=#000000;" parent="1" source="16" target="77" edge="1">
            <mxGeometry relative="1" as="geometry">
              <mxPoint y="-1" as="offset" />
              <Array as="points" />
            </mxGeometry>
          </mxCell>
        </object>
        <object id="99">
          <ag_attributes />
          <ag_computed_attributes />
          <mxCell style="edgeStyle=none;startArrow=none;endArrow=classic;startSize=9;endSize=9;spacingTop=0;spacingBottom=0;spacingLeft=0;spacingRight=0;verticalAlign=middle;labelBackgroundColor=#ffffff;rounded=0;strokeWidth=2;strokeColor=#000000;" parent="1" source="15" target="66" edge="1">
            <mxGeometry relative="1" as="geometry">
              <mxPoint as="offset" />
              <Array as="points" />
            </mxGeometry>
          </mxCell>
        </object>
        <object label="" id="100">
          <ag_attributes />
          <ag_computed_attributes />
          <mxCell style="edgeStyle=none;startArrow=none;endArrow=classic;startSize=9;endSize=9;spacingTop=0;spacingBottom=0;spacingLeft=0;spacingRight=0;verticalAlign=middle;labelBackgroundColor=#ffffff;rounded=0;align=center;exitX=1;exitY=1;exitDx=0;exitDy=0;exitPerimeter=0;entryX=0;entryY=0.05714285714285714;entryDx=0;entryDy=0;entryPerimeter=0;jumpStyle=arc;strokeWidth=2;strokeColor=#000000;" parent="1" source="25" target="76" edge="1">
            <mxGeometry relative="1" as="geometry" />
          </mxCell>
        </object>
        <object label="" id="101">
          <ag_attributes />
          <ag_computed_attributes />
          <mxCell style="edgeStyle=none;startArrow=none;endArrow=classic;startSize=9;endSize=9;spacingTop=0;spacingBottom=0;spacingLeft=0;spacingRight=0;verticalAlign=middle;labelBackgroundColor=#ffffff;rounded=0;align=center;strokeWidth=2;strokeColor=#000000;" parent="1" source="43" target="76" edge="1">
            <mxGeometry relative="1" as="geometry">
              <mxPoint x="-1" y="-1" as="offset" />
              <Array as="points" />
            </mxGeometry>
          </mxCell>
        </object>
        <object label="" id="108">
          <ag_attributes />
          <ag_computed_attributes />
          <mxCell style="edgeStyle=none;startArrow=none;endArrow=classic;startSize=9;endSize=9;spacingTop=0;spacingBottom=0;spacingLeft=0;spacingRight=0;verticalAlign=middle;labelBackgroundColor=#ffffff;rounded=0;align=center;exitX=0.6205357142857143;exitY=1.0208333333333333;exitDx=0;exitDy=0;exitPerimeter=0;entryX=0.39444444444444443;entryY=0;entryDx=0;entryDy=0;entryPerimeter=0;strokeWidth=2;strokeColor=#000000;" parent="1" source="25" target="67" edge="1">
            <mxGeometry relative="1" as="geometry">
              <mxPoint x="-1" y="-1" as="offset" />
              <Array as="points" />
            </mxGeometry>
          </mxCell>
        </object>
        <object id="109">
          <ag_attributes />
          <ag_computed_attributes />
          <mxCell style="edgeStyle=none;startArrow=none;endArrow=classic;startSize=9;endSize=9;spacingTop=0;spacingBottom=0;spacingLeft=0;spacingRight=0;verticalAlign=middle;labelBackgroundColor=#ffffff;rounded=0;strokeWidth=2;strokeColor=#000000;" parent="1" source="18" target="66" edge="1">
            <mxGeometry relative="1" as="geometry">
              <mxPoint x="-1" as="offset" />
              <Array as="points" />
            </mxGeometry>
          </mxCell>
        </object>
        <object label="2" id="113">
          <ag_attributes />
          <ag_computed_attributes />
          <mxCell style="edgeStyle=none;startArrow=none;endArrow=classic;startSize=9;endSize=9;spacingTop=0;spacingBottom=0;spacingLeft=0;spacingRight=0;verticalAlign=middle;labelBackgroundColor=#ffffff;rounded=0;entryX=0.03888888888888889;entryY=0;entryDx=0;entryDy=0;entryPerimeter=0;jumpStyle=arc;strokeWidth=2;fontSize=15;strokeColor=#000000;" parent="1" source="7" target="5" edge="1">
            <mxGeometry relative="1" as="geometry">
              <mxPoint x="-1" y="-1" as="offset" />
              <Array as="points">
                <mxPoint x="3540" y="314" />
              </Array>
            </mxGeometry>
          </mxCell>
        </object>
        <object label="3" id="114">
          <ag_attributes />
          <ag_computed_attributes />
          <mxCell style="html=1;startArrow=none;endArrow=classic;startSize=9;endSize=9;spacingTop=0;spacingBottom=0;spacingLeft=0;spacingRight=0;verticalAlign=middle;labelBackgroundColor=#ffffff;rounded=0;entryX=0;entryY=0.5;entryDx=0;entryDy=0;jumpStyle=arc;strokeWidth=2;fontSize=15;strokeColor=#000000;" parent="1" source="53" target="8JTDnxqXrUcjIwR7DWEQ-169" edge="1">
            <mxGeometry relative="1" as="geometry">
              <mxPoint x="-1" y="-1" as="offset" />
            </mxGeometry>
          </mxCell>
        </object>
        <object id="115">
          <ag_attributes />
          <ag_computed_attributes />
          <mxCell style="edgeStyle=none;startArrow=none;endArrow=classic;startSize=9;endSize=9;spacingTop=0;spacingBottom=0;spacingLeft=0;spacingRight=0;verticalAlign=middle;labelBackgroundColor=#ffffff;rounded=0;strokeWidth=2;strokeColor=#000000;" parent="1" source="46" target="43" edge="1">
            <mxGeometry relative="1" as="geometry">
              <mxPoint x="-1" y="-1" as="offset" />
              <Array as="points" />
            </mxGeometry>
          </mxCell>
        </object>
        <object id="116">
          <ag_attributes />
          <ag_computed_attributes />
          <mxCell style="edgeStyle=none;startArrow=none;endArrow=classic;startSize=9;endSize=9;spacingTop=0;spacingBottom=0;spacingLeft=0;spacingRight=0;verticalAlign=middle;labelBackgroundColor=#ffffff;rounded=0;strokeWidth=2;strokeColor=#000000;" parent="1" source="46" target="42" edge="1">
            <mxGeometry relative="1" as="geometry">
              <mxPoint y="-1" as="offset" />
              <Array as="points" />
            </mxGeometry>
          </mxCell>
        </object>
        <object label="2" id="117">
          <ag_attributes />
          <ag_computed_attributes />
          <mxCell style="edgeStyle=none;startArrow=none;endArrow=classic;startSize=9;endSize=9;spacingTop=0;spacingBottom=0;spacingLeft=0;spacingRight=0;verticalAlign=middle;labelBackgroundColor=#ffffff;rounded=0;exitX=0.5444444444444444;exitY=1.0208333333333333;exitDx=0;exitDy=0;exitPerimeter=0;entryX=0.46111111111111114;entryY=0;entryDx=0;entryDy=0;entryPerimeter=0;endFill=1;strokeWidth=2;fontSize=15;strokeColor=#000000;" parent="1" source="44" target="45" edge="1">
            <mxGeometry relative="1" as="geometry">
              <mxPoint as="offset" />
              <Array as="points" />
            </mxGeometry>
          </mxCell>
        </object>
        <object label="3" id="118">
          <ag_attributes />
          <ag_computed_attributes />
          <mxCell style="edgeStyle=none;startArrow=none;endArrow=classic;startSize=9;endSize=9;spacingTop=0;spacingBottom=0;spacingLeft=0;spacingRight=0;verticalAlign=middle;labelBackgroundColor=#ffffff;rounded=0;exitX=0.40555555555555556;exitY=1.0208333333333333;exitDx=0;exitDy=0;exitPerimeter=0;entryX=0.6;entryY=0;entryDx=0;entryDy=0;entryPerimeter=0;strokeWidth=2;fontSize=15;strokeColor=#000000;" parent="1" source="44" target="5" edge="1">
            <mxGeometry relative="1" as="geometry">
              <mxPoint y="-1" as="offset" />
              <Array as="points" />
            </mxGeometry>
          </mxCell>
        </object>
        <object label="" id="120">
          <ag_attributes />
          <ag_computed_attributes />
          <mxCell style="edgeStyle=none;startArrow=none;endArrow=classic;startSize=9;endSize=9;spacingTop=0;spacingBottom=0;spacingLeft=0;spacingRight=0;verticalAlign=middle;labelBackgroundColor=#ffffff;rounded=0;align=center;strokeWidth=2;strokeColor=#000000;" parent="1" source="5" target="43" edge="1">
            <mxGeometry relative="1" as="geometry">
              <mxPoint y="-1" as="offset" />
              <Array as="points" />
            </mxGeometry>
          </mxCell>
        </object>
        <object label="" id="121">
          <ag_attributes />
          <ag_computed_attributes />
          <mxCell style="edgeStyle=none;startArrow=none;endArrow=classic;startSize=9;endSize=9;spacingTop=0;spacingBottom=0;spacingLeft=0;spacingRight=0;verticalAlign=middle;labelBackgroundColor=#ffffff;rounded=0;align=center;strokeWidth=2;strokeColor=#000000;" parent="1" source="43" target="41" edge="1">
            <mxGeometry relative="1" as="geometry">
              <mxPoint x="-1" as="offset" />
              <Array as="points" />
            </mxGeometry>
          </mxCell>
        </object>
        <object id="122">
          <ag_attributes />
          <ag_computed_attributes />
          <mxCell style="edgeStyle=none;startArrow=none;endArrow=classic;startSize=9;endSize=9;spacingTop=0;spacingBottom=0;spacingLeft=0;spacingRight=0;verticalAlign=middle;labelBackgroundColor=#ffffff;rounded=0;exitX=0.5486111111111112;exitY=1;exitDx=0;exitDy=0;exitPerimeter=0;entryX=0.4583333333333333;entryY=0;entryDx=0;entryDy=0;entryPerimeter=0;strokeWidth=2;strokeColor=#000000;" parent="1" source="42" target="41" edge="1">
            <mxGeometry relative="1" as="geometry">
              <mxPoint x="-1" y="-1" as="offset" />
              <Array as="points" />
            </mxGeometry>
          </mxCell>
        </object>
        <object label="" id="123">
          <ag_attributes />
          <ag_computed_attributes />
          <mxCell style="edgeStyle=none;startArrow=none;endArrow=classic;startSize=9;endSize=9;spacingTop=0;spacingBottom=0;spacingLeft=0;spacingRight=0;verticalAlign=middle;labelBackgroundColor=#ffffff;rounded=0;align=center;strokeWidth=2;strokeColor=#000000;" parent="1" source="26" target="34" edge="1">
            <mxGeometry relative="1" as="geometry">
              <mxPoint x="-1" y="-1" as="offset" />
              <Array as="points" />
            </mxGeometry>
          </mxCell>
        </object>
        <object id="127">
          <ag_attributes />
          <ag_computed_attributes />
          <mxCell style="edgeStyle=none;startArrow=none;endArrow=classic;startSize=9;endSize=9;spacingTop=0;spacingBottom=0;spacingLeft=0;spacingRight=0;verticalAlign=middle;labelBackgroundColor=#ffffff;rounded=0;jumpStyle=arc;strokeWidth=2;strokeColor=#000000;" parent="1" source="5" target="29" edge="1">
            <mxGeometry relative="1" as="geometry">
              <mxPoint x="-1" y="-1" as="offset" />
              <Array as="points" />
            </mxGeometry>
          </mxCell>
        </object>
        <object id="128">
          <ag_attributes />
          <ag_computed_attributes />
          <mxCell style="edgeStyle=none;startArrow=none;endArrow=classic;startSize=9;endSize=9;spacingTop=0;spacingBottom=0;spacingLeft=0;spacingRight=0;verticalAlign=middle;labelBackgroundColor=#ffffff;rounded=0;strokeWidth=2;strokeColor=#000000;" parent="1" source="23" target="25" edge="1">
            <mxGeometry relative="1" as="geometry">
              <mxPoint x="-8" y="-1" as="offset" />
              <Array as="points" />
              <mxPoint x="2850" y="400" as="sourcePoint" />
            </mxGeometry>
          </mxCell>
        </object>
        <object label="" id="129">
          <ag_attributes />
          <ag_computed_attributes />
          <mxCell style="edgeStyle=none;startArrow=none;endArrow=classic;startSize=9;endSize=9;spacingTop=0;spacingBottom=0;spacingLeft=0;spacingRight=0;verticalAlign=middle;labelBackgroundColor=#ffffff;rounded=0;align=center;exitX=0.4642857142857143;exitY=1.0208333333333333;exitDx=0;exitDy=0;exitPerimeter=0;strokeWidth=2;strokeColor=#000000;" parent="1" source="25" target="6g0KnZ-V3_jas_Bn5bBH-165" edge="1">
            <mxGeometry relative="1" as="geometry">
              <mxPoint x="-1" as="offset" />
              <Array as="points" />
              <mxPoint x="2617.6176470588234" y="639" as="targetPoint" />
            </mxGeometry>
          </mxCell>
        </object>
        <object label="" id="130">
          <ag_attributes />
          <ag_computed_attributes />
          <mxCell style="edgeStyle=none;startArrow=none;endArrow=classic;startSize=9;endSize=9;spacingTop=0;spacingBottom=0;spacingLeft=0;spacingRight=0;verticalAlign=middle;labelBackgroundColor=#ffffff;rounded=0;align=center;exitX=0.44642857142857145;exitY=1.0208333333333333;exitDx=0;exitDy=0;exitPerimeter=0;entryX=0.575;entryY=0;entryDx=0;entryDy=0;entryPerimeter=0;strokeWidth=2;strokeColor=#000000;" parent="1" source="24" target="27" edge="1">
            <mxGeometry relative="1" as="geometry">
              <mxPoint x="-1" as="offset" />
              <Array as="points" />
            </mxGeometry>
          </mxCell>
        </object>
        <object label="" id="131">
          <ag_attributes />
          <ag_computed_attributes />
          <mxCell style="edgeStyle=none;startArrow=none;endArrow=classic;startSize=9;endSize=9;spacingTop=0;spacingBottom=0;spacingLeft=0;spacingRight=0;verticalAlign=middle;labelBackgroundColor=#ffffff;rounded=0;align=center;exitX=0.5669642857142857;exitY=1.0208333333333333;exitDx=0;exitDy=0;exitPerimeter=0;entryX=0.5;entryY=0;entryDx=0;entryDy=0;strokeWidth=2;strokeColor=#000000;" parent="1" source="24" target="6g0KnZ-V3_jas_Bn5bBH-165" edge="1">
            <mxGeometry relative="1" as="geometry">
              <mxPoint x="-1" y="-1" as="offset" />
              <Array as="points" />
              <mxPoint x="2570" y="639" as="targetPoint" />
            </mxGeometry>
          </mxCell>
        </object>
        <object id="132">
          <ag_attributes />
          <ag_computed_attributes />
          <mxCell style="edgeStyle=none;startArrow=none;endArrow=classic;startSize=9;endSize=9;spacingTop=0;spacingBottom=0;spacingLeft=0;spacingRight=0;verticalAlign=middle;labelBackgroundColor=#ffffff;rounded=0;strokeWidth=2;strokeColor=#000000;" parent="1" source="23" target="26" edge="1">
            <mxGeometry relative="1" as="geometry">
              <mxPoint as="offset" />
              <Array as="points" />
            </mxGeometry>
          </mxCell>
        </object>
        <object id="133">
          <ag_attributes />
          <ag_computed_attributes />
          <mxCell style="edgeStyle=none;startArrow=none;endArrow=classic;startSize=9;endSize=9;spacingTop=0;spacingBottom=0;spacingLeft=0;spacingRight=0;verticalAlign=middle;labelBackgroundColor=#ffffff;rounded=0;strokeWidth=2;strokeColor=#000000;" parent="1" source="23" target="24" edge="1">
            <mxGeometry relative="1" as="geometry">
              <mxPoint x="-1" as="offset" />
              <Array as="points" />
            </mxGeometry>
          </mxCell>
        </object>
        <object id="134">
          <ag_attributes />
          <ag_computed_attributes />
          <mxCell style="edgeStyle=none;startArrow=none;endArrow=classic;startSize=9;endSize=9;spacingTop=0;spacingBottom=0;spacingLeft=0;spacingRight=0;verticalAlign=middle;labelBackgroundColor=#ffffff;rounded=0;entryX=0.3;entryY=0;entryDx=0;entryDy=0;entryPerimeter=0;strokeWidth=2;strokeColor=#000000;" parent="1" source="8" target="9" edge="1">
            <mxGeometry relative="1" as="geometry">
              <mxPoint x="-1" y="-1" as="offset" />
              <Array as="points" />
            </mxGeometry>
          </mxCell>
        </object>
        <object id="135">
          <ag_attributes />
          <ag_computed_attributes />
          <mxCell style="edgeStyle=none;startArrow=none;endArrow=classic;startSize=9;endSize=9;spacingTop=0;spacingBottom=0;spacingLeft=0;spacingRight=0;verticalAlign=middle;labelBackgroundColor=#FFFFFF;strokeWidth=2;curved=1;strokeColor=#000000;" parent="1" source="8" target="10" edge="1">
            <mxGeometry relative="1" as="geometry">
              <mxPoint y="-1" as="offset" />
              <Array as="points">
                <mxPoint x="300" y="560" />
              </Array>
            </mxGeometry>
          </mxCell>
        </object>
        <object id="138">
          <ag_attributes />
          <ag_computed_attributes />
          <mxCell style="edgeStyle=none;startArrow=none;endArrow=classic;startSize=9;endSize=9;spacingTop=0;spacingBottom=0;spacingLeft=0;spacingRight=0;verticalAlign=middle;labelBackgroundColor=#ffffff;rounded=0;entryX=0.5;entryY=0;entryDx=0;entryDy=0;strokeWidth=2;strokeColor=#000000;" parent="1" source="8" target="13" edge="1">
            <mxGeometry relative="1" as="geometry">
              <mxPoint x="-1" y="-1" as="offset" />
              <Array as="points" />
              <mxPoint x="756" y="601" as="sourcePoint" />
            </mxGeometry>
          </mxCell>
        </object>
        <object id="140">
          <ag_attributes />
          <ag_computed_attributes />
          <mxCell style="edgeStyle=none;startArrow=none;endArrow=classic;startSize=9;endSize=9;spacingTop=0;spacingBottom=0;spacingLeft=0;spacingRight=0;verticalAlign=middle;labelBackgroundColor=#ffffff;rounded=0;strokeWidth=2;strokeColor=#000000;" parent="1" source="4" target="18" edge="1">
            <mxGeometry relative="1" as="geometry">
              <mxPoint x="-6" as="offset" />
              <Array as="points" />
              <mxPoint x="1903" y="419" as="sourcePoint" />
            </mxGeometry>
          </mxCell>
        </object>
        <object id="141">
          <ag_attributes />
          <ag_computed_attributes />
          <mxCell style="edgeStyle=none;startArrow=none;endArrow=classic;startSize=9;endSize=9;spacingTop=0;spacingBottom=0;spacingLeft=0;spacingRight=0;verticalAlign=middle;labelBackgroundColor=#ffffff;rounded=0;strokeWidth=2;strokeColor=#000000;" parent="1" source="18" target="16" edge="1">
            <mxGeometry relative="1" as="geometry">
              <mxPoint as="offset" />
              <Array as="points" />
            </mxGeometry>
          </mxCell>
        </object>
        <object id="142">
          <ag_attributes />
          <ag_computed_attributes />
          <mxCell style="edgeStyle=none;startArrow=none;endArrow=classic;startSize=9;endSize=9;spacingTop=0;spacingBottom=0;spacingLeft=0;spacingRight=0;verticalAlign=middle;labelBackgroundColor=#ffffff;rounded=0;strokeWidth=2;strokeColor=#000000;" parent="1" source="4" target="15" edge="1">
            <mxGeometry relative="1" as="geometry">
              <mxPoint y="-1" as="offset" />
              <Array as="points" />
            </mxGeometry>
          </mxCell>
        </object>
        <object id="143">
          <ag_attributes />
          <ag_computed_attributes />
          <mxCell style="edgeStyle=none;startArrow=none;endArrow=classic;startSize=9;endSize=9;spacingTop=0;spacingBottom=0;spacingLeft=0;spacingRight=0;verticalAlign=middle;labelBackgroundColor=#ffffff;rounded=0;exitX=0.7366071428571429;exitY=1.0208333333333333;exitDx=0;exitDy=0;exitPerimeter=0;entryX=0.26339285714285715;entryY=0;entryDx=0;entryDy=0;entryPerimeter=0;strokeWidth=2;strokeColor=#000000;" parent="1" source="4" target="17" edge="1">
            <mxGeometry relative="1" as="geometry">
              <mxPoint as="offset" />
              <Array as="points" />
            </mxGeometry>
          </mxCell>
        </object>
        <object id="144">
          <ag_attributes />
          <ag_computed_attributes />
          <mxCell style="edgeStyle=none;startArrow=none;endArrow=classic;startSize=9;endSize=9;spacingTop=0;spacingBottom=0;spacingLeft=0;spacingRight=0;verticalAlign=middle;labelBackgroundColor=#ffffff;rounded=0;strokeWidth=2;strokeColor=#000000;" parent="1" source="8" target="19" edge="1">
            <mxGeometry relative="1" as="geometry">
              <mxPoint x="-1" as="offset" />
              <Array as="points" />
              <mxPoint x="590" y="621" as="sourcePoint" />
            </mxGeometry>
          </mxCell>
        </object>
        <object label="3" id="145">
          <ag_attributes />
          <ag_computed_attributes />
          <mxCell style="edgeStyle=none;startArrow=none;endArrow=classic;startSize=9;endSize=9;spacingTop=0;spacingBottom=0;spacingLeft=0;spacingRight=0;verticalAlign=middle;labelBackgroundColor=#ffffff;rounded=0;entryX=0.7142857142857143;entryY=0;entryDx=0;entryDy=0;entryPerimeter=0;strokeWidth=2;fontSize=15;strokeColor=#000000;" parent="1" source="53" target="4" edge="1">
            <mxGeometry relative="1" as="geometry">
              <mxPoint y="-1" as="offset" />
              <Array as="points" />
              <mxPoint x="2270" y="180" as="sourcePoint" />
            </mxGeometry>
          </mxCell>
        </object>
        <object id="146">
          <ag_attributes />
          <ag_computed_attributes />
          <mxCell style="edgeStyle=none;startArrow=none;endArrow=classic;startSize=9;endSize=9;spacingTop=0;spacingBottom=0;spacingLeft=0;spacingRight=0;verticalAlign=middle;labelBackgroundColor=#ffffff;rounded=0;strokeWidth=2;strokeColor=#000000;" parent="1" source="5" target="20" edge="1">
            <mxGeometry relative="1" as="geometry">
              <mxPoint x="-1" y="-1" as="offset" />
              <Array as="points" />
            </mxGeometry>
          </mxCell>
        </object>
        <object label="" id="147">
          <ag_attributes />
          <ag_computed_attributes />
          <mxCell style="edgeStyle=none;startArrow=none;endArrow=classic;startSize=9;endSize=9;spacingTop=0;spacingBottom=0;spacingLeft=0;spacingRight=0;verticalAlign=middle;labelBackgroundColor=#ffffff;rounded=0;align=center;strokeWidth=2;strokeColor=#000000;" parent="1" source="20" target="21" edge="1">
            <mxGeometry relative="1" as="geometry">
              <mxPoint x="-1" y="-1" as="offset" />
              <Array as="points" />
            </mxGeometry>
          </mxCell>
        </object>
        <object label="1" id="149">
          <ag_attributes />
          <ag_computed_attributes />
          <mxCell style="edgeStyle=none;startArrow=none;endArrow=classic;startSize=9;endSize=9;spacingTop=0;spacingBottom=0;spacingLeft=0;spacingRight=0;verticalAlign=middle;labelBackgroundColor=#ffffff;rounded=0;entryX=0.9732142857142857;entryY=0;entryDx=0;entryDy=0;entryPerimeter=0;jumpStyle=arc;strokeWidth=2;fontSize=15;strokeColor=#000000;" parent="1" source="6" target="4" edge="1">
            <mxGeometry relative="1" as="geometry">
              <mxPoint x="-1" as="offset" />
              <Array as="points" />
            </mxGeometry>
          </mxCell>
        </object>
        <object label="1" id="150">
          <ag_attributes />
          <ag_computed_attributes />
          <mxCell style="edgeStyle=none;startArrow=none;endArrow=classic;startSize=9;endSize=9;spacingTop=0;spacingBottom=0;spacingLeft=0;spacingRight=0;verticalAlign=middle;labelBackgroundColor=#ffffff;rounded=0;entryX=1;entryY=0.08333333333333333;entryDx=0;entryDy=0;entryPerimeter=0;jumpStyle=arc;strokeWidth=2;fontSize=15;strokeColor=#000000;" parent="1" source="7" target="4" edge="1">
            <mxGeometry relative="1" as="geometry">
              <mxPoint x="-1" as="offset" />
              <Array as="points" />
            </mxGeometry>
          </mxCell>
        </object>
        <object label="3" id="151">
          <ag_attributes />
          <ag_computed_attributes />
          <mxCell style="html=1;edgeStyle=none;startArrow=none;endArrow=classic;startSize=9;endSize=9;spacingTop=0;spacingBottom=0;spacingLeft=0;spacingRight=0;verticalAlign=middle;labelBackgroundColor=#ffffff;rounded=0;entryX=0;entryY=0.5;entryDx=0;entryDy=0;strokeWidth=2;fontSize=15;strokeColor=#000000;" parent="1" source="53" target="gX3LE2zartJ2DNbec-Po-174" edge="1">
            <mxGeometry relative="1" as="geometry">
              <mxPoint as="offset" />
              <Array as="points" />
            </mxGeometry>
          </mxCell>
        </object>
        <object label="1" id="152">
          <ag_attributes />
          <ag_computed_attributes />
          <mxCell style="edgeStyle=none;startArrow=none;endArrow=classic;startSize=9;endSize=9;spacingTop=0;spacingBottom=0;spacingLeft=0;spacingRight=0;verticalAlign=middle;labelBackgroundColor=#ffffff;rounded=0;entryX=0.75;entryY=0;entryDx=0;entryDy=0;strokeWidth=2;fontSize=15;strokeColor=#000000;" parent="1" source="7" target="gX3LE2zartJ2DNbec-Po-174" edge="1">
            <mxGeometry relative="1" as="geometry">
              <mxPoint y="-1" as="offset" />
              <Array as="points" />
            </mxGeometry>
          </mxCell>
        </object>
        <object label="1" id="153">
          <ag_attributes />
          <ag_computed_attributes />
          <mxCell style="html=1;edgeStyle=none;startArrow=none;endArrow=classic;startSize=9;endSize=9;spacingTop=0;spacingBottom=0;spacingLeft=0;spacingRight=0;verticalAlign=middle;labelBackgroundColor=#ffffff;rounded=0;strokeWidth=2;fontSize=15;strokeColor=#000000;" parent="1" source="6" target="gX3LE2zartJ2DNbec-Po-174" edge="1">
            <mxGeometry relative="1" as="geometry">
              <mxPoint x="-1" y="-1" as="offset" />
              <Array as="points" />
            </mxGeometry>
          </mxCell>
        </object>
        <object id="gX3LE2zartJ2DNbec-Po-167">
          <ag_attributes />
          <ag_computed_attributes />
          <mxCell style="edgeStyle=none;rounded=0;orthogonalLoop=1;jettySize=auto;html=1;strokeWidth=2;startArrow=diamondThin;startFill=1;endArrow=none;endFill=0;strokeColor=#000000;" parent="1" source="eVtNR8atQoOk0DHgdyy4-153" target="gX3LE2zartJ2DNbec-Po-166" edge="1">
            <mxGeometry relative="1" as="geometry" />
          </mxCell>
        </object>
        <object label="Deceive AI model with adversarial attacks" Resources="4" Knowledge="4" Location="0" id="eVtNR8atQoOk0DHgdyy4-153">
          <ag_attributes label="NaN" Resources="5" Knowledge="5" Location="0" />
          <ag_computed_attributes fillColor="#40ff00" fontColor="#000000" value="1" />
          <ag_computed_attributes_function_reference ag_computed_attributes_function_reference="dbg60ff69g9a" />
          <ag_aggregation_function_reference ag_aggregation_function_reference="73f575i0ghij5" />
          <mxCell style="verticalAlign=top;align=center;fillColor=#d7e3bf;gradientColor=none;labelBackgroundColor=none;rounded=0;whiteSpace=wrap;shape=attackgraphs.node;spacingRight=20;" parent="1" vertex="1">
            <mxGeometry x="1840" y="748.5" width="176" height="75" as="geometry" />
          </mxCell>
        </object>
        <object id="eVtNR8atQoOk0DHgdyy4-154">
          <ag_attributes />
          <ag_computed_attributes />
          <mxCell style="edgeStyle=none;startArrow=none;endArrow=classic;startSize=9;endSize=9;spacingTop=0;spacingBottom=0;spacingLeft=0;spacingRight=0;verticalAlign=middle;labelBackgroundColor=#ffffff;rounded=0;strokeWidth=2;strokeColor=#000000;" parent="1" source="16" target="eVtNR8atQoOk0DHgdyy4-153" edge="1">
            <mxGeometry relative="1" as="geometry">
              <mxPoint x="-1" y="-1" as="offset" />
              <Array as="points" />
              <mxPoint x="2037" y="681" as="sourcePoint" />
              <mxPoint x="2102" y="765" as="targetPoint" />
            </mxGeometry>
          </mxCell>
        </object>
        <object label="" id="eVtNR8atQoOk0DHgdyy4-208">
          <ag_attributes />
          <ag_computed_attributes />
          <mxCell style="edgeStyle=none;startArrow=none;endArrow=classic;startSize=9;endSize=9;spacingTop=0;spacingBottom=0;spacingLeft=0;spacingRight=0;verticalAlign=middle;labelBackgroundColor=#ffffff;rounded=0;align=center;exitX=0.771;exitY=0.984;exitDx=0;exitDy=0;exitPerimeter=0;strokeWidth=2;strokeColor=#000000;" parent="1" source="42" target="76" edge="1">
            <mxGeometry relative="1" as="geometry">
              <mxPoint x="-1" as="offset" />
              <Array as="points" />
              <mxPoint x="3534.784" y="524.4250000000001" as="sourcePoint" />
              <mxPoint x="3480.7250000000004" y="645.604" as="targetPoint" />
            </mxGeometry>
          </mxCell>
        </object>
        <object label="" id="eVtNR8atQoOk0DHgdyy4-210">
          <ag_attributes />
          <ag_computed_attributes />
          <mxCell style="edgeStyle=none;startArrow=none;endArrow=classic;startSize=9;endSize=9;spacingTop=0;spacingBottom=0;spacingLeft=0;spacingRight=0;verticalAlign=middle;labelBackgroundColor=#ffffff;rounded=0;align=center;strokeWidth=2;strokeColor=#000000;" parent="1" source="43" target="21" edge="1">
            <mxGeometry relative="1" as="geometry">
              <mxPoint x="-1" y="-1" as="offset" />
              <Array as="points" />
              <mxPoint x="3722" y="526" as="sourcePoint" />
              <mxPoint x="3765" y="649" as="targetPoint" />
            </mxGeometry>
          </mxCell>
        </object>
        <object label="" id="eVtNR8atQoOk0DHgdyy4-211">
          <ag_attributes />
          <ag_computed_attributes />
          <mxCell style="edgeStyle=none;startArrow=none;endArrow=classic;startSize=9;endSize=9;spacingTop=0;spacingBottom=0;spacingLeft=0;spacingRight=0;verticalAlign=middle;labelBackgroundColor=#ffffff;rounded=0;align=center;strokeWidth=2;strokeColor=#000000;" parent="1" source="43" target="22" edge="1">
            <mxGeometry relative="1" as="geometry">
              <mxPoint x="-1" y="-1" as="offset" />
              <Array as="points" />
              <mxPoint x="3571.3600000000006" y="527.155" as="sourcePoint" />
              <mxPoint x="3730.5280000000002" y="649.6800000000001" as="targetPoint" />
            </mxGeometry>
          </mxCell>
        </object>
        <object label="Attack Target&#10;Travel and Life Management" id="pCnNo5EmcwS2ose940Cv-153">
          <ag_attributes />
          <ag_computed_attributes />
          <mxCell style="verticalAlign=middle;align=center;fillColor=#FFFFFF;gradientColor=none;labelBackgroundColor=none;rounded=0;whiteSpace=wrap;shape=trapezoid;size=0.07500000000000001;allowArrows=0;connectable=0;" parent="1" vertex="1">
            <mxGeometry x="2618" y="40" width="300" height="60" as="geometry" />
          </mxCell>
        </object>
        <object label="" id="H8-0O90GaupJun0dLJcG-153">
          <ag_attributes label="NaN" Resources="5" Knowledge="5" Location="1" _marking="11;12" />
          <ag_computed_attributes />
          <ag_aggregation_function_reference ag_aggregation_function_reference="gf0d4f199018" />
          <mxCell style="shape=or;whiteSpace=wrap;rotation=-90;" parent="1" vertex="1">
            <mxGeometry x="320" y="601" width="30" height="40" as="geometry" />
          </mxCell>
        </object>
        <object label="" id="H8-0O90GaupJun0dLJcG-154">
          <ag_attributes label="NaN" Resources="5" Knowledge="5" Location="1" _marking="13;19" />
          <ag_computed_attributes />
          <ag_aggregation_function_reference ag_aggregation_function_reference="gf0d4f199018" />
          <mxCell style="shape=or;whiteSpace=wrap;rotation=-90;" parent="1" vertex="1">
            <mxGeometry x="649" y="591" width="30" height="40" as="geometry" />
          </mxCell>
        </object>
        <object label="Financial Damage Individual" id="6">
          <ag_attributes _risk="L" _marking="4;gX3LE2zartJ2DNbec-Po-174" _weight="4:1;gX3LE2zartJ2DNbec-Po-174:1" />
          <ag_computed_attributes fillColor="#40ff00" fontColor="#000000" value="L" />
          <ag_aggregation_function_reference ag_aggregation_function_reference="egf49jfgj408" />
          <ag_computed_attributes_function_reference ag_computed_attributes_function_reference="6c831697g9i0a" />
          <mxCell style="shape=attackgraphs.node;rounded=1" parent="1" vertex="1">
            <mxGeometry x="2530" y="120" width="259" height="48" as="geometry" />
          </mxCell>
        </object>
        <object id="ryOWkv3Osx5Q9vz0j6kA-155">
          <ag_attributes />
          <ag_computed_attributes />
          <mxCell style="edgeStyle=none;startArrow=none;endArrow=classic;startSize=9;endSize=9;spacingTop=0;spacingBottom=0;spacingLeft=0;spacingRight=0;verticalAlign=middle;labelBackgroundColor=#ffffff;rounded=0;strokeWidth=2;entryX=0;entryY=0.5;entryDx=0;entryDy=0;exitX=0.5;exitY=1;exitDx=0;exitDy=0;strokeColor=#000000;" parent="1" source="9" target="30" edge="1">
            <mxGeometry relative="1" as="geometry">
              <mxPoint x="-1" y="-1" as="offset" />
              <Array as="points">
                <mxPoint x="900" y="770" />
              </Array>
              <mxPoint x="890" y="770" as="sourcePoint" />
              <mxPoint x="1010" y="711" as="targetPoint" />
            </mxGeometry>
          </mxCell>
        </object>
        <object label="" id="ryOWkv3Osx5Q9vz0j6kA-156">
          <ag_attributes />
          <ag_computed_attributes />
          <mxCell style="endArrow=classic;html=1;rounded=0;entryX=0;entryY=0.5;entryDx=0;entryDy=0;strokeWidth=2;exitX=0.5;exitY=1;exitDx=0;exitDy=0;strokeColor=#000000;" parent="1" source="9" target="32" edge="1">
            <mxGeometry width="50" height="50" relative="1" as="geometry">
              <mxPoint x="880" y="703.5" as="sourcePoint" />
              <mxPoint x="930" y="653.5" as="targetPoint" />
              <Array as="points">
                <mxPoint x="900" y="830" />
              </Array>
            </mxGeometry>
          </mxCell>
        </object>
        <object label="" id="ryOWkv3Osx5Q9vz0j6kA-157">
          <ag_attributes />
          <ag_computed_attributes />
          <mxCell style="endArrow=classic;html=1;rounded=0;strokeWidth=2;entryX=0;entryY=0.5;entryDx=0;entryDy=0;exitX=0.5;exitY=1;exitDx=0;exitDy=0;strokeColor=#000000;" parent="1" source="9" target="33" edge="1">
            <mxGeometry width="50" height="50" relative="1" as="geometry">
              <mxPoint x="890" y="780" as="sourcePoint" />
              <mxPoint x="908.5" y="770" as="targetPoint" />
              <Array as="points">
                <mxPoint x="900" y="900" />
              </Array>
            </mxGeometry>
          </mxCell>
        </object>
        <object label="" id="ryOWkv3Osx5Q9vz0j6kA-158">
          <ag_attributes />
          <ag_computed_attributes />
          <mxCell style="endArrow=classic;html=1;rounded=0;strokeWidth=2;exitX=0.5;exitY=1;exitDx=0;exitDy=0;entryX=0;entryY=0.5;entryDx=0;entryDy=0;strokeColor=#000000;" parent="1" source="9" target="31" edge="1">
            <mxGeometry width="50" height="50" relative="1" as="geometry">
              <mxPoint x="880" y="721" as="sourcePoint" />
              <mxPoint x="910" y="776" as="targetPoint" />
              <Array as="points">
                <mxPoint x="900" y="980" />
              </Array>
            </mxGeometry>
          </mxCell>
        </object>
        <object id="Nkw-83D25Ah4-VtpksPn-166">
          <ag_attributes />
          <ag_computed_attributes />
          <mxCell style="edgeStyle=none;rounded=0;orthogonalLoop=1;jettySize=auto;html=1;strokeWidth=2;startArrow=diamondThin;startFill=1;endArrow=none;endFill=0;strokeColor=#000000;" parent="1" source="6g0KnZ-V3_jas_Bn5bBH-165" target="Nkw-83D25Ah4-VtpksPn-165" edge="1">
            <mxGeometry relative="1" as="geometry" />
          </mxCell>
        </object>
        <object label="(D)DoS" Resources="2" Knowledge="2" Location="0" id="6g0KnZ-V3_jas_Bn5bBH-165">
          <ag_attributes label="NaN" Resources="5" Knowledge="3" Location="0" />
          <ag_computed_attributes fillColor="#d4ff00" fontColor="#000000" value="2" />
          <ag_computed_attributes_function_reference ag_computed_attributes_function_reference="dbg60ff69g9a" />
          <ag_aggregation_function_reference ag_aggregation_function_reference="73f575i0ghij5" />
          <mxCell style="verticalAlign=top;align=center;fillColor=#fee599;gradientColor=none;labelBackgroundColor=none;rounded=0;whiteSpace=wrap;shape=attackgraphs.node;spacingRight=20;" parent="1" vertex="1">
            <mxGeometry x="2521" y="634" width="139" height="60" as="geometry" />
          </mxCell>
        </object>
        <object label="Access Restriction" Resources="1" Knowledge="1" Location="0" id="Nkw-83D25Ah4-VtpksPn-157">
          <ag_attributes />
          <ag_computed_attributes />
          <mxCell style="shape=attackgraphs.node;fillColor=#DAE8FC;verticalAlign=top;align=left;spacingLeft=2;" parent="1" vertex="1">
            <mxGeometry x="660" y="1000" width="150" height="45" as="geometry" />
          </mxCell>
        </object>
        <object label="" id="Nkw-83D25Ah4-VtpksPn-159">
          <ag_attributes />
          <ag_computed_attributes />
          <mxCell style="endArrow=none;dashed=1;html=1;rounded=0;strokeWidth=1;startArrow=none;strokeColor=#000000;" parent="1" edge="1">
            <mxGeometry width="50" height="50" relative="1" as="geometry">
              <mxPoint x="10" y="1100" as="sourcePoint" />
              <mxPoint x="4220" y="1100" as="targetPoint" />
            </mxGeometry>
          </mxCell>
        </object>
        <object id="OLxmPBuryR6FnYWvzUAJ-156">
          <ag_attributes />
          <ag_computed_attributes />
          <mxCell style="rounded=0;orthogonalLoop=1;jettySize=auto;html=1;strokeWidth=2;startArrow=none;startFill=0;endArrow=none;endFill=0;strokeColor=#000000;align=left;verticalAlign=top;spacingLeft=2;" parent="1" source="Nkw-83D25Ah4-VtpksPn-160" target="OLxmPBuryR6FnYWvzUAJ-155" edge="1">
            <mxGeometry relative="1" as="geometry" />
          </mxCell>
        </object>
        <object label="Malware Protection&#10;Firewall&#10;Vulnerabilityscans&#10;Penetration testing&#10;Awareness Training&#10;Backups" Resources="2" Knowledge="3" Location="0" id="Nkw-83D25Ah4-VtpksPn-160">
          <ag_attributes />
          <ag_computed_attributes />
          <mxCell style="shape=attackgraphs.node;fillColor=#DAE8FC;align=left;verticalAlign=top;" parent="1" vertex="1">
            <mxGeometry x="2559" y="970" width="230" height="120" as="geometry" />
          </mxCell>
        </object>
        <object id="gX3LE2zartJ2DNbec-Po-169">
          <ag_attributes />
          <ag_computed_attributes />
          <mxCell style="edgeStyle=none;rounded=0;orthogonalLoop=1;jettySize=auto;html=1;strokeWidth=4;startArrow=diamondThin;startFill=1;endArrow=none;endFill=0;strokeColor=#000000;" parent="1" source="77" target="gX3LE2zartJ2DNbec-Po-164" edge="1">
            <mxGeometry relative="1" as="geometry" />
          </mxCell>
        </object>
        <object id="gX3LE2zartJ2DNbec-Po-171">
          <ag_attributes />
          <ag_computed_attributes />
          <mxCell style="edgeStyle=none;rounded=0;orthogonalLoop=1;jettySize=auto;html=1;strokeWidth=2;startArrow=diamondThin;startFill=1;endArrow=none;endFill=0;strokeColor=#000000;" parent="1" source="77" target="gX3LE2zartJ2DNbec-Po-170" edge="1">
            <mxGeometry relative="1" as="geometry" />
          </mxCell>
        </object>
        <object label="Influence training data (bias)" Resources="4" Knowledge="5" Location="0" id="77">
          <ag_attributes label="NaN" Resources="5" Knowledge="5" Location="0" />
          <ag_computed_attributes fillColor="#40ff00" fontColor="#000000" value="1" />
          <ag_computed_attributes_function_reference ag_computed_attributes_function_reference="dbg60ff69g9a" />
          <ag_aggregation_function_reference ag_aggregation_function_reference="73f575i0ghij5" />
          <mxCell style="verticalAlign=top;align=center;fillColor=#d7e3bf;gradientColor=none;labelBackgroundColor=none;rounded=0;whiteSpace=wrap;shape=attackgraphs.node;spacingRight=20;" parent="1" vertex="1">
            <mxGeometry x="1450" y="748.5" width="160" height="75" as="geometry" />
          </mxCell>
        </object>
        <object label="Redundancy&#10;Scalability&#10;Access Restriction&#10;Access Control" Resources="3" Knowledge="1" Location="0" id="Nkw-83D25Ah4-VtpksPn-165">
          <ag_attributes />
          <ag_computed_attributes />
          <mxCell style="shape=attackgraphs.node;fillColor=#DAE8FC;align=left;verticalAlign=top;spacingLeft=2;" parent="1" vertex="1">
            <mxGeometry x="2833.5" y="1000" width="208" height="90" as="geometry" />
          </mxCell>
        </object>
        <object label="Backups" Resources="2" Knowledge="0" Location="0" id="Nkw-83D25Ah4-VtpksPn-169">
          <ag_attributes />
          <ag_computed_attributes />
          <mxCell style="shape=attackgraphs.node;fillColor=#DAE8FC;verticalAlign=top;align=left;spacingLeft=2;" parent="1" vertex="1">
            <mxGeometry x="2331" y="1000" width="150" height="45" as="geometry" />
          </mxCell>
        </object>
        <object label="Privacy Enhancing Technologies" Resources="2" Knowledge="2" Location="0" id="Nkw-83D25Ah4-VtpksPn-171">
          <ag_attributes />
          <ag_computed_attributes />
          <mxCell style="shape=attackgraphs.node;fillColor=#DAE8FC;verticalAlign=top;align=left;spacingLeft=2;" parent="1" vertex="1">
            <mxGeometry x="4017" y="1200" width="208" height="45" as="geometry" />
          </mxCell>
        </object>
        <object id="8JTDnxqXrUcjIwR7DWEQ-162">
          <ag_attributes />
          <ag_computed_attributes />
          <mxCell style="edgeStyle=none;rounded=0;orthogonalLoop=1;jettySize=auto;html=1;strokeWidth=2;startArrow=diamondThin;startFill=1;endArrow=none;endFill=0;strokeColor=#000000;" parent="1" source="22" target="gX3LE2zartJ2DNbec-Po-190" edge="1">
            <mxGeometry relative="1" as="geometry">
              <mxPoint x="4190" y="691" as="sourcePoint" />
              <mxPoint x="4240" y="1091" as="targetPoint" />
            </mxGeometry>
          </mxCell>
        </object>
        <object label="Eavesdrop on personal device" Resources="2" Knowledge="2" Location="0" id="22">
          <ag_attributes label="NaN" Resources="4" Knowledge="4" Location="1" />
          <ag_computed_attributes fillColor="#40ff00" fontColor="#000000" value="1" />
          <ag_computed_attributes_function_reference ag_computed_attributes_function_reference="dbg60ff69g9a" />
          <ag_aggregation_function_reference ag_aggregation_function_reference="73f575i0ghij5" />
          <mxCell style="verticalAlign=top;align=center;fillColor=#fee599;gradientColor=none;labelBackgroundColor=none;rounded=0;whiteSpace=wrap;shape=attackgraphs.node;spacingRight=20;" parent="1" vertex="1">
            <mxGeometry x="3860" y="634" width="144" height="60" as="geometry" />
          </mxCell>
        </object>
        <object label="Secure Data Storage" Resources="2" Knowledge="2" Location="1" id="Nkw-83D25Ah4-VtpksPn-174">
          <ag_attributes />
          <ag_computed_attributes />
          <ag_enabled ag_enabled="1" />
          <mxCell style="shape=attackgraphs.node;fillColor=#DAE8FC;verticalAlign=top;align=left;spacingLeft=2;" parent="1" vertex="1">
            <mxGeometry x="1800" y="1000" width="150" height="45" as="geometry" />
          </mxCell>
        </object>
        <object label="Encryption" Resources="5" Knowledge="3" Location="0" id="Nkw-83D25Ah4-VtpksPn-175">
          <ag_attributes />
          <ag_computed_attributes />
          <mxCell style="shape=attackgraphs.node;fillColor=#DAE8FC;verticalAlign=top;align=left;spacingLeft=2;" parent="1" vertex="1">
            <mxGeometry x="3340" y="1000" width="150" height="45" as="geometry" />
          </mxCell>
        </object>
        <object label="Resilience" Resources="2" Knowledge="3" Location="0" id="Nkw-83D25Ah4-VtpksPn-177">
          <ag_attributes />
          <ag_computed_attributes />
          <mxCell style="shape=attackgraphs.node;fillColor=#DAE8FC;verticalAlign=top;align=left;spacingLeft=2;" parent="1" vertex="1">
            <mxGeometry x="3060" y="1190" width="150" height="45" as="geometry" />
          </mxCell>
        </object>
        <object label="Multi-factor authentication&#10;Code Signing" Resources="1" Knowledge="2" Location="0" id="8JTDnxqXrUcjIwR7DWEQ-164">
          <ag_attributes />
          <ag_computed_attributes />
          <mxCell style="shape=attackgraphs.node;fillColor=#DAE8FC;verticalAlign=top;align=left;spacingLeft=2;" parent="1" vertex="1">
            <mxGeometry x="20" y="1000" width="170" height="75" as="geometry" />
          </mxCell>
        </object>
        <object label="Integrity Protection of Environment Monitoring" Resources="1" Knowledge="1" Location="0" id="8JTDnxqXrUcjIwR7DWEQ-166">
          <ag_attributes />
          <ag_computed_attributes />
          <mxCell style="shape=attackgraphs.node;fillColor=#DAE8FC;align=left;verticalAlign=top;spacingLeft=2;" parent="1" vertex="1">
            <mxGeometry x="60" y="1200" width="220" height="75" as="geometry" />
          </mxCell>
        </object>
        <object id="gX3LE2zartJ2DNbec-Po-178">
          <ag_attributes />
          <ag_computed_attributes />
          <mxCell style="edgeStyle=none;rounded=0;orthogonalLoop=1;jettySize=auto;html=1;strokeWidth=2;startArrow=diamondThin;startFill=1;endArrow=none;endFill=0;strokeColor=#000000;" parent="1" source="gX3LE2zartJ2DNbec-Po-174" target="8JTDnxqXrUcjIwR7DWEQ-168" edge="1">
            <mxGeometry relative="1" as="geometry">
              <mxPoint x="2780" y="310" as="sourcePoint" />
            </mxGeometry>
          </mxCell>
        </object>
        <object label="Business Continuity Management" Impact="2" id="8JTDnxqXrUcjIwR7DWEQ-168">
          <ag_attributes />
          <ag_computed_attributes />
          <mxCell style="shape=attackgraphs.node;fillColor=#DAE8FC;fontSize=12;align=left;verticalAlign=top;spacingLeft=2;whiteSpace=wrap;" parent="1" vertex="1">
            <mxGeometry x="3030" y="295" width="220" height="45" as="geometry" />
          </mxCell>
        </object>
        <object id="8JTDnxqXrUcjIwR7DWEQ-170">
          <ag_attributes />
          <ag_computed_attributes />
          <mxCell style="edgeStyle=none;rounded=0;orthogonalLoop=1;jettySize=auto;html=1;strokeWidth=2;startArrow=diamondThin;startFill=1;endArrow=none;endFill=0;strokeColor=#000000;" parent="1" source="8JTDnxqXrUcjIwR7DWEQ-169" target="8JTDnxqXrUcjIwR7DWEQ-168" edge="1">
            <mxGeometry relative="1" as="geometry" />
          </mxCell>
        </object>
        <object id="8JTDnxqXrUcjIwR7DWEQ-172">
          <ag_attributes />
          <ag_computed_attributes />
          <mxCell style="edgeStyle=none;rounded=0;orthogonalLoop=1;jettySize=auto;html=1;strokeWidth=2;exitX=0.5;exitY=1;exitDx=0;exitDy=0;startArrow=none;startFill=0;endArrow=classic;endFill=1;strokeColor=#000000;" parent="1" source="8JTDnxqXrUcjIwR7DWEQ-169" target="46" edge="1">
            <mxGeometry relative="1" as="geometry" />
          </mxCell>
        </object>
        <object label="" id="8JTDnxqXrUcjIwR7DWEQ-169">
          <ag_attributes _af="1" _marking="46" _impact="2" />
          <ag_computed_attributes />
          <ag_aggregation_function_reference ag_aggregation_function_reference="397423adceb0f" />
          <mxCell style="shape=attackgraphs.node;allowArrows=0;" parent="1" vertex="1">
            <mxGeometry x="3385" y="300" width="21" height="20" as="geometry" />
          </mxCell>
        </object>
        <object label="Integrity Protection of Environment Monitoring" Resources="2" Knowledge="2" Location="0" id="A0BHLIg7a4nKn3OKpdOo-154">
          <ag_attributes />
          <ag_computed_attributes />
          <ag_enabled ag_enabled="1" />
          <mxCell style="shape=attackgraphs.node;fillColor=#DAE8FC;verticalAlign=top;align=left;spacingLeft=2;" parent="1" vertex="1">
            <mxGeometry x="791.5" y="1200" width="220" height="75" as="geometry" />
          </mxCell>
        </object>
        <object label="Resilience" Resources="2" Knowledge="3" Location="0" id="gX3LE2zartJ2DNbec-Po-153">
          <ag_attributes />
          <ag_computed_attributes />
          <mxCell style="shape=attackgraphs.node;fillColor=#DAE8FC;verticalAlign=top;align=left;spacingLeft=2;" parent="1" vertex="1">
            <mxGeometry x="345" y="1200" width="120" height="45" as="geometry" />
          </mxCell>
        </object>
        <object label="Access Control" Resources="1" Knowledge="1" Location="0" id="gX3LE2zartJ2DNbec-Po-164">
          <ag_attributes />
          <ag_computed_attributes />
          <ag_enabled ag_enabled="1" />
          <mxCell style="shape=attackgraphs.node;fillColor=#DAE8FC;verticalAlign=top;align=left;spacingLeft=2;" parent="1" vertex="1">
            <mxGeometry x="1451" y="1000" width="150" height="45" as="geometry" />
          </mxCell>
        </object>
        <object label="Robustness" Resources="2" Knowledge="2" Location="0" id="gX3LE2zartJ2DNbec-Po-166">
          <ag_attributes />
          <ag_computed_attributes />
          <ag_enabled ag_enabled="1" />
          <mxCell style="shape=attackgraphs.node;fillColor=#DAE8FC;verticalAlign=top;align=left;spacingLeft=2;" parent="1" vertex="1">
            <mxGeometry x="1930" y="1200" width="150" height="45" as="geometry" />
          </mxCell>
        </object>
        <object label="Awareness Training" Resources="1" Knowledge="1" Location="0" id="gX3LE2zartJ2DNbec-Po-170">
          <ag_attributes />
          <ag_computed_attributes />
          <ag_enabled ag_enabled="1" />
          <mxCell style="shape=attackgraphs.node;fillColor=#DAE8FC;verticalAlign=top;align=left;spacingLeft=2;" parent="1" vertex="1">
            <mxGeometry x="1620" y="1000" width="150" height="45" as="geometry" />
          </mxCell>
        </object>
        <object id="gX3LE2zartJ2DNbec-Po-177">
          <ag_attributes />
          <ag_computed_attributes />
          <mxCell style="edgeStyle=none;rounded=0;orthogonalLoop=1;jettySize=auto;html=1;strokeWidth=2;startArrow=none;startFill=0;endArrow=classic;endFill=1;strokeColor=#000000;" parent="1" source="gX3LE2zartJ2DNbec-Po-174" target="23" edge="1">
            <mxGeometry relative="1" as="geometry" />
          </mxCell>
        </object>
        <object label="" id="gX3LE2zartJ2DNbec-Po-174">
          <ag_attributes _af="2" _marking="23" _impact="2" />
          <ag_computed_attributes />
          <ag_aggregation_function_reference ag_aggregation_function_reference="397423adceb0f" />
          <mxCell style="shape=attackgraphs.node;allowArrows=0;" parent="1" vertex="1">
            <mxGeometry x="2833.5" y="300" width="21" height="20" as="geometry" />
          </mxCell>
        </object>
        <object label="Digital Signature" Resources="2" Knowledge="2" Location="1" id="gX3LE2zartJ2DNbec-Po-179">
          <ag_attributes />
          <ag_computed_attributes />
          <mxCell style="shape=attackgraphs.node;fillColor=#DAE8FC;verticalAlign=top;align=left;spacingLeft=2;" parent="1" vertex="1">
            <mxGeometry x="2064" y="1000" width="150" height="45" as="geometry" />
          </mxCell>
        </object>
        <object label="Redundancy&#10;Plausibility Check" Resources="2" Knowledge="2" Location="0" id="gX3LE2zartJ2DNbec-Po-185">
          <ag_attributes />
          <ag_computed_attributes />
          <mxCell style="shape=attackgraphs.node;fillColor=#DAE8FC;verticalAlign=top;align=left;spacingLeft=2;" parent="1" vertex="1">
            <mxGeometry x="490" y="1200" width="150" height="85" as="geometry" />
          </mxCell>
        </object>
        <object label="Data Minimization" Resources="1" Knowledge="1" Location="0" id="gX3LE2zartJ2DNbec-Po-188">
          <ag_attributes />
          <ag_computed_attributes />
          <mxCell style="shape=attackgraphs.node;fillColor=#DAE8FC;verticalAlign=top;align=left;spacingLeft=2;" parent="1" vertex="1">
            <mxGeometry x="3857" y="1200" width="150" height="45" as="geometry" />
          </mxCell>
        </object>
        <object label="Hardened Device&#10;Restrictid Permissions&#10;Malware Protection" Resources="2" Knowledge="2" Location="1" id="gX3LE2zartJ2DNbec-Po-190">
          <ag_attributes />
          <ag_computed_attributes />
          <mxCell style="shape=attackgraphs.node;fillColor=#DAE8FC;verticalAlign=top;align=left;spacingLeft=2;" parent="1" vertex="1">
            <mxGeometry x="3730" y="1063" width="170" height="75" as="geometry" />
          </mxCell>
        </object>
        <object label="Responsiveness to security vulnerabilities" id="OLxmPBuryR6FnYWvzUAJ-155">
          <ag_attributes />
          <ag_computed_attributes />
          <mxCell style="shape=attackgraphs.node;fillColor=#DAE8FC;align=left;verticalAlign=top;spacingLeft=2;" parent="1" vertex="1">
            <mxGeometry x="2559" y="1200" width="230" height="75" as="geometry" />
          </mxCell>
        </object>
        <object label="Secure Boot&#10;Code Signing&#10;System hardening" Resources="2" Knowledge="2" Location="0" id="A0BHLIg7a4nKn3OKpdOo-160">
          <ag_attributes />
          <ag_computed_attributes />
          <mxCell style="shape=attackgraphs.node;fillColor=#DAE8FC;verticalAlign=top;align=left;spacingLeft=2;" parent="1" vertex="1">
            <mxGeometry x="1250" y="1063" width="150" height="75" as="geometry" />
          </mxCell>
        </object>
        <object id="Nkw-83D25Ah4-VtpksPn-154">
          <ag_attributes />
          <ag_computed_attributes />
          <mxCell style="rounded=0;orthogonalLoop=1;jettySize=auto;html=1;strokeWidth=2;startArrow=diamondThin;startFill=1;endArrow=none;endFill=0;exitX=0;exitY=1;exitDx=0;exitDy=0;jumpStyle=arc;strokeColor=#000000;" parent="1" source="30" target="Nkw-83D25Ah4-VtpksPn-157" edge="1">
            <mxGeometry relative="1" as="geometry">
              <mxPoint x="1210" y="853.5490196078431" as="targetPoint" />
              <Array as="points" />
            </mxGeometry>
          </mxCell>
        </object>
      </root>
    </mxGraphModel>
  </diagram>
</mxfile>